<?xml version="1.0" encoding="UTF-8"?>
<svg width="461.25" height="422.81" version="1.1" viewBox="0 0 461.25 422.8125" xmlns="http://www.w3.org/2000/svg" fill="#323234">
 <path d="m162.42 422.2c-2.3423-0.96513-1.2104-4.9531 2.3438-8.2574 2.6645-2.4772 3.1094-3.2746 1.8376-3.2939-2.5306-0.0383-8.911 3.4887-10.003 5.5296-2.7802 5.1949-6.4672 6.0789-10.584 2.5379-2.8864-2.4824-3.2632-4.4822-1.1719-6.2179 2.0811-1.7272 1.7424-2.4405-1.6406-3.4547l-3.0469-0.91346 3.9844-0.71081c2.1914-0.39095 3.9844-1.0628 3.9844-1.4929 0-1.1063-17.123-1.0118-18.784 0.10364-1.196 0.80304-1.1917 0.90213 0.0339 0.77127 3.5186-0.37574 5.7054 0.12088 5.0687 1.1511-0.73841 1.1948-25.879 0.49639-36.944-1.0263-17.068-2.3488-33.411-4.8113-34.453-5.1915-0.64453-0.23512-1.1719-1.0451-1.1719-1.8 0-0.75488-0.84375-1.6403-1.875-1.9676s-1.875-1.0508-1.875-1.6078c0-0.69813 2.7665-0.81823 8.9062-0.38666 4.8984 0.34434 8.9062 0.41875 8.9062 0.16537s-3.0586-1.3867-6.7969-2.5184-8.1808-2.8314-9.8723-3.777c-3.7112-2.0746-4.3159-2.1347-3.6353-0.36097 1.0396 2.7091-8.2002 3.5872-11.943 1.135-4.1767-2.7367-7.2309-1.9833-10.715 2.643-4.0884 5.4282-12.581 8.3737-10.806 3.7479 0.29358-0.76506-0.13779-1.6227-0.97844-1.9453-0.82696-0.31733-1.5035-1.1016-1.5035-1.7429 0-1.4301-8.8089-0.27036-10.857 1.4293-1.0283 0.85343-1.4495 0.71208-1.9677-0.66034-0.36257-0.96042-2.0551-4.1375-3.7611-7.0602s-3.1018-5.9666-3.1018-6.7643c0-2.185 5.5642-8.078 7.6272-8.078 0.9944 0 3.3765-0.66205 5.2935-1.4712l3.4855-1.4712-2.9528-1.2565c-3.5541-1.5123-5.1878-4.0407-4.0203-6.2221 1.7818-3.3292 15.909-9.2665 22.049-9.2665 2.2741 0 1.4609 1.8732-1.2476 2.8741-1.418 0.52399-4.6875 1.9749-7.2656 3.2244-2.5781 1.2494-5.8477 2.5058-7.2656 2.792-2.8194 0.56899-3.5104 3.2312-1.3123 5.0555 0.96899 0.80419 3.0844 0.16185 9.021-2.7392 4.2653-2.0844 7.934-3.611 8.1525-3.3924 0.46625 0.46625-4.5246 4.1011-13.728 9.9982-3.6213 2.3203-6.5846 4.7731-6.5852 5.4506-7.15e-4 0.81697-0.98615 1.1327-2.926 0.9375-2.3199-0.23346-3.0893 0.142-3.7198 1.815-0.73191 1.9423-0.52948 2.1094 2.5556 2.1094 2.4152 0 3.842-0.62486 5.1112-2.2384 0.9684-1.2311 2.8644-2.5154 4.2133-2.854 1.3489-0.33857 3.5705-1.4051 4.9367-2.37 1.3662-0.96493 3.5355-2.0618 4.8205-2.4375 4.2194-1.2336 0.37942 2.1021-6.7061 5.8254-6.8413 3.595-12.037 8.9964-12.037 12.514 0 1.7884 0.35731 1.9912 2.5781 1.4634 1.418-0.33697 3.6328-1.4363 4.9219-2.4429 1.9481-1.5212 9.7544-6.1028 12.454-7.3092 0.40432-0.18071-0.36692 1.2934-1.7139 3.2759-1.3469 1.9824-2.9434 3.6612-3.5476 3.7306-2.7376 0.31456-2.8767 0.45598-1.333 1.3551 0.98818 0.57556 1.6406 2.0791 1.6406 3.7809 0 2.6228 0.2184 2.8043 3.0469 2.5316 2.0637-0.19899 2.9525-0.72804 2.7545-1.6396-0.73352-3.3766 1.0484-5.9086 6.6479-9.4464 11.117-7.0235 12.863-8.5501 11.881-10.386-0.49082-0.9171-0.8924-2.5219-0.8924-3.5662s-0.98701-2.865-2.1934-4.046c-2.658-2.6022-7.1816-10.374-7.1816-12.339 0-0.78105-0.81744-2.8153-1.8165-4.5206-3.1043-5.2984-4.2419-14.87-2.8679-24.129 0.65562-4.4185 1.9675-10.354 2.9152-13.19s1.7335-6.6855 1.7462-8.5545c0.03371-4.97 9.2614-20.469 16.396-27.539 3.1219-3.0938 8.8363-7.4996 12.698-9.7908 6.6271-3.9314 7.5498-4.2054 16.397-4.8692 5.1562-0.38684 9.9023-0.72705 10.547-0.75603 0.64453-0.029 1.1719-0.73063 1.1719-1.5592 0-1.0212-0.50359-1.3133-1.5631-0.90673-0.85971 0.3299-4.1292 0.80065-7.2656 1.0461-3.1364 0.24547-5.0697 0.19381-4.2963-0.11479 0.77344-0.30861 2.7356-1.1561 4.3604-1.8833s3.3661-1.3222 3.8696-1.3222c0.50347 0 1.4406-0.63281 2.0825-1.4062 1.5834-1.9078 0.61355-1.7807-7.0312 0.92182-5.038 1.781-8.4681 2.3245-14.766 2.3397-4.5117 0.0109-8.2031-0.3479-8.2031-0.79727 0-0.44938 3.2695-1.0132 7.2656-1.253 8.7818-0.52699 17.829-3.6525 21.419-7.3997 1.4321-1.4948 2.1546-2.7177 1.6056-2.7177-0.54896 0-1.521 0.63006-2.1601 1.4001-1.7992 2.1679-15.431 6.0999-21.147 6.0999-6.9515 0-6.462-1.4837 0.75152-2.2782 6.4203-0.70713 18.516-5.6956 18.516-7.6365 0-0.80114-1.7904-0.30484-5.3906 1.4943-5.6246 2.8108-16.033 4.846-14.83 2.8998 0.35418-0.57309 1.6878-1.042 2.9636-1.042 2.4663 0 11.099-4.0037 12.09-5.6072 0.81349-1.3162 0.29524-1.2248-5.093 0.8991-5.6817 2.2395-18.994 3.0022-20.812 1.1924-0.94251-0.93809-0.02705-1.1719 4.589-1.1719 7.1498 0 14.748-1.567 16.225-3.3458 0.9332-1.1244 0.52563-1.3434-2.5169-1.352-4.9822-0.01416-10.662-1.0214-10.662-1.8907 0-0.39503 3.4805-0.68087 7.7344-0.63522 11.153 0.11969 13.12-1.4374 3.7696-2.9843-7.6723-1.2694-15.254-4.0556-15.254-5.6057 0-0.5056 2.2148-0.14615 4.9219 0.79876 8.7708 3.0616 20.391 3.5942 20.391 0.9347 0-0.52565-3.26-0.91964-7.6093-0.91964-7.0751 0-7.5759-0.12797-7.1327-1.8228 0.36688-1.403-0.12111-1.9541-2.1188-2.3928-1.4275-0.31354-4.0186-1.646-5.758-2.9611-2.7647-2.0902-2.8677-2.3048-0.81871-1.7056 1.2891 0.37697 3.8776 1.459 5.7523 2.4045 4.2597 2.1484 16.353 4.9571 17.717 4.1146 1.2528-0.7743 0.41956-5.4282-1.7202-9.6073-1.6253-3.1744-5.975-5.1765-9.3366-4.2974-2.0853 0.54531-7.9541-4.9286-10.526-9.8177-4.2376-8.056-4.9377-10.268-5.0501-15.957-0.1402-7.0956 0.82008-8.2974 2.1982-2.7509 0.54838 2.207 1.7662 6.122 2.7062 8.7002 0.94001 2.5781 2.304 6.5831 3.0311 8.9 1.0272 3.2734 2.0535 4.5696 4.6032 5.8143 4.0697 1.9868 4.6875 2.0347 4.6875 0.36379 0-0.73046 0.52734-1.5056 1.1719-1.7225 1.7209-0.57919-0.48666-2.973-4.4962-4.8757-3.5671-1.6927-4.2576-3.3236-1.4072-3.3236 3.2102 0 6.5942 2.1024 8.5951 5.34 1.0684 1.7287 3.1172 3.7505 4.553 4.493 2.0705 1.0707 2.7424 2.2296 3.2482 5.6023 0.35072 2.3388 1.0337 4.2523 1.5177 4.2523 1.2358 0 1.1014-5.9662-0.16291-7.2305-0.57363-0.57363-0.84934-1.6072-0.61268-2.2969 0.26855-0.78258 1.1907-0.0205 2.4534 2.0273 1.7784 2.8844 1.9942 4.4373 1.7846 12.841-0.16654 6.6752 0.11508 9.9141 0.93337 10.734 0.64453 0.64613 1.1719 2.5947 1.1719 4.3302s0.49999 4.0769 1.1111 5.2031c0.61109 1.1262 1.3901 3.5243 1.7311 5.329 0.52997 2.8046 0.72913 3.0089 1.3711 1.4062 0.41307-1.0312 1.269-3.1717 1.902-4.7566 1.4236-3.5644 12.518-9.634 22.835-12.493 6.3459-1.7586 7.3421-1.8032 13.121-0.58748 8.516 1.7914 11.176 2.9907 16.688 7.5245 3.3443 2.7508 16.606 15.668 18.046 17.578 2.1618 2.8663-0.45501 1.7708-4.7196-1.9757-3.5464-3.1156-10.954-7.6336-12.517-7.6336-1.4752 0 0.0698 2.5746 5.2088 8.6795 3.1432 3.7341 6.5658 8.4767 7.6058 10.539s2.7313 4.668 3.7584 5.79c1.0847 1.1849 1.5683 2.5239 1.1538 3.1946-0.50825 0.82238-0.14551 1.006 1.2607 0.63829 1.2936-0.33829 3.6732 0.57825 6.9021 2.6586 2.7103 1.7462 6.423 3.4324 8.2504 3.7472 1.8274 0.31479 5.1535 1.1692 7.3912 1.8988 4.8224 1.5721 5.7499 1.5939 15.998 0.37536 7.6048-0.90418 10.176-1.7291 7.9172-2.5404-0.59302-0.21302-3.0031-1.887-5.3557-3.7199-5.8084-4.5253-11.578-16.261-7.9942-16.261 2.1729 0 11.886 5.8436 12.963 7.799 2.257 4.0968 9.5107 7.6146 24.434 11.849 3.8672 1.0974 8.2969 2.4269 9.8438 2.9544 1.5469 0.52751 4.7931 1.4961 7.2138 2.1524s5.8945 2.3321 7.7194 3.7241c4.6144 3.5196 10.088 5.2644 18.582 5.9228 4.7877 0.37117 7.2656 0.95364 7.2656 1.7079 0 1.1596-1.808 1.6423-13.573 3.6235l-6.5419 1.1016 4.7555 2.0458c6.3368 2.726 13.217 4.2016 16.367 3.51 1.419-0.31167 2.8383-0.12 3.1777 0.42916 0.98625 1.5958 3.8444 1.1567 8.4658-1.3005 2.3718-1.2611 6.1416-2.5672 8.3773-2.9025 2.9081-0.4361 4.6012-1.3349 5.9493-3.1583 3.954-5.3481 17.654-5.9842 16.916-0.78547-0.26991 1.9004-0.74382 2.0795-4.8153 1.8199-4.1831-0.2667-11.972 1.7779-14.187 3.7241-0.48984 0.43041-1.7974 0.78255-2.9058 0.78255-1.1083 0-3.8716 1.258-6.1406 2.7954-2.5827 1.7501-5.3525 2.8072-7.4067 2.8269-4.879 0.0467-6.5586 1.4939-2.5966 2.2372 3.0621 0.57445 28.705 3.3173 31.659 3.3864 1.25 0.0292 1.25 0.13886 0 0.98673-0.86528 0.5869-5.5537 0.75866-12.188 0.44647-11.71-0.55108-11.675 0.19813 0.13332 2.884 3.536 0.80425 6.4292 1.8982 6.4292 2.431 0 0.54762-1.1208 0.76112-2.5781 0.49114-10.913-2.0216-18.253-3.6296-22.186-4.8597-4.6248-1.4467-6.3831-1.2726-4.6501 0.46045 1.4634 1.4634 11.268 4.6641 14.287 4.6641 1.503 0 6.8924 0.87214 11.977 1.9381 10.082 2.1139 19.535 1.8879 25.513-0.61 1.7482-0.73044 3.9708-1.3281 4.939-1.3281 0.96829 0 1.7605-0.63281 1.7605-1.4062s0.35733-1.4062 0.79405-1.4062c0.43673 0 1.7669-0.84375 2.956-1.875 3.6246-3.1436 6.6409-1.5657 3.5156 1.8392-0.64453 0.7022 0.18646 0.34506 1.8466-0.79365 3.9003-2.6752 4.3097-3.4265 3.0993-5.6882-0.5501-1.0279-1.6316-6.3672-2.4034-11.865-0.77178-5.498-2.0039-11.31-2.738-12.916-0.73412-1.6059-1.882-7.1386-2.5509-12.295-0.73981-5.703-1.3377-8.1521-1.5264-6.2528-0.22372 2.2512-0.68447 2.9786-1.6515 2.6076-0.81358-0.3122-1.3412 0.0665-1.3412 0.96244 0 0.92336 0.52363 1.2762 1.3967 0.94118 2.3006-0.88282 2.7679 3.6684 1.5897 15.48-1.1919 11.949-2.543 17.089-3.9104 14.877-0.44895-0.72643-0.67697-2.4214-0.50671-3.7667 0.2955-2.3349-0.69363-18.904-1.9032-31.88-0.3124-3.3516-1.5541-11.354-2.7594-17.783-1.5593-8.3174-1.9214-12.193-1.2556-13.437 0.6966-1.3016 0.53379-2.1926-0.63707-3.4864-0.86504-0.95587-1.3132-2.1579-0.99599-2.6713 0.31725-0.51331-0.48517-3.255-1.7832-6.0927s-2.36-5.3729-2.36-5.6338c0-1.1792-7.9417-17.064-8.8382-17.678-0.55304-0.37883-2.1657-0.69523-3.5837-0.70313-1.9542-0.0109-2.5781-0.47122-2.5781-1.9021 0-1.0382-0.41826-2.6203-0.92947-3.5156-0.5112-0.89535-2.453-5.8466-4.3151-11.003s-6.4565-15.703-10.21-23.438c-7.8911-16.261-11.733-26.832-11.733-32.281 0-4.546 2.7599-15.063 3.9529-15.063 0.45817 0 0.7054 2.74 0.54942 6.0888-0.15599 3.3488-0.60002 6.091-0.98674 6.0938-0.38671 3e-3 -0.69029 1.3761-0.67461 3.0518 0.0236 2.5238 0.19255 2.7652 0.98408 1.4062 1.4838-2.5476 3.6749-2.0222 3.6749 0.88107 0 3.4569 1.8902 13.521 2.9134 15.512 0.46013 0.89535 0.85062 2.161 0.86778 2.8125 0.0172 0.65153 0.89034 2.2169 1.9404 3.4786 1.5951 1.9166 2.1972 2.1142 3.6594 1.2011 1.5306-0.9559 1.7934-0.7733 2.0951 1.456 0.31901 2.3573 0.50599 2.1965 2.4868-2.1386 1.178-2.5781 2.6901-7.2188 3.3602-10.312s1.5308-6.8906 1.9125-8.4375c1.4236-5.7688-1.1044-0.74652-3.7751 7.5-3.189 9.8468-4.2356 8.1458-1.8808-3.0569 0.83882-3.9906 1.7767-10.974 2.0841-15.518 0.56124-8.2953 2.106-9.6497 2.1345-1.8714 7e-3 2.161 0.50356 4.2314 1.1015 4.6009 0.81158 0.5016 0.94371-1.8605 0.5213-9.3197-0.53896-9.5173-0.47787-9.9916 1.2868-9.9916 1.0608 0 2.1922-0.90154 2.6472-2.1094 0.71766-1.9052 0.89975-1.7237 1.8809 1.875 0.59749 2.1914 1.3094 3.9844 1.582 3.9844 1.2524 0-1.0448-21.067-2.9136-26.719-0.61994-1.875-0.61994-1.875 0.91847 0 0.84613 1.0312 2.0228 3.668 2.6147 5.8594 1.2078 4.4713 1.6288 4.7572 3.2295 2.194 0.90536-1.4497 0.74165-2.743-0.86039-6.7969-2.7991-7.0829-7.8864-17.631-10.102-20.944-3.2156-4.8098-2.0856-4.5009 2.4582 0.67183 2.393 2.7242 4.4738 5.1004 4.624 5.2803 0.15022 0.17991 0.0228-0.66384-0.28314-1.875-0.63257-2.5042-7.2565-12.645-8.5772-13.132-0.47845-0.17617-1.8616-2.4297-3.0736-5.0078-2.0026-4.2598-2.6739-4.847-7.3566-6.4355-2.8341-0.96141-7.8952-1.8848-11.247-2.052-3.3516-0.16718-6.4102-0.32979-6.7969-0.36135-0.38671-0.03156-0.70312-0.6902-0.70312-1.4636 0-4.1974 27.964 1.9764 30.469 6.7267 0.51562 0.97799 1.9359 2.8177 3.1562 4.0882 2.5218 2.6257 11.375 15.875 11.375 17.023 0 1.6031-1.0018 0.55793-4.7366-4.9418-2.1279-3.1335-4.0292-5.537-4.2251-5.341s0.89461 3.5775 2.4234 7.5146c2.806 7.2264 4.4217 15.05 5.3259 25.789 0.44374 5.2704 0.31745 5.8596-1.2565 5.8613-1.6142 0.0019-1.7498 0.90537-1.7498 11.654 0 6.4086 0.29498 11.124 0.65553 10.479 2.2165-3.9662 5.335-24.507 5.397-35.549 0.0261-4.6323 0.38548-7.1082 0.97867-6.7415 0.51563 0.31867 0.94396 2.1365 0.95185 4.0397 7e-3 1.9032 0.37398 4.0277 0.81352 4.7213 1.0542 1.6633 1.6866-0.93895 2.5342-10.428 0.35822-4.0104 0.95793-7.4812 1.3327-7.7128 1.0256-0.63385 1.8731 7.1901 1.2296 11.352-0.31272 2.0227-0.2051 3.3173 0.24118 2.9013 1.3622-1.2699 2.0994-12.145 1.1092-16.361-0.61316-2.6111-0.6187-4.391-0.016-5.1562 0.50618-0.64275 1.1975-2.3288 1.5362-3.7468s1.0039-2.5781 1.4781-2.5781c1.449 0 2.1671 8.0036 1.7338 19.324-0.39655 10.36 0.182 12.206 1.5093 4.8164 0.34729-1.9336 0.94872-3.5156 1.3365-3.5156 1.232 0 0.031 12.277-2.2926 23.438-2.3722 11.394-7.4075 23.338-14.069 33.374-1.877 2.8278-3.213 5.3412-2.969 5.5852 0.5155 0.51549 6.3373-8.054 10.545-15.522 3.955-7.0194 5.5452-11.577 8.892-25.488 2.241-9.3142 2.8755-14.104 2.9252-22.085 0.0745-11.95 1.2621-15.439 2.2177-6.5163 1.7678 16.507-3.3337 43.262-11.214 58.814-2.5438 5.02-2.6934 7.252-0.23454 3.4993 6.6948-10.218 14.978-40.371 14.705-53.531-0.066-3.1823-0.0934-10.954-0.0607-17.27 0.0502-9.7003 0.2841-11.484 1.506-11.484 2.0556 0 1.7946-1.6382-0.37043-2.3254-1.0243-0.32511-2.3021-2.091-2.9289-4.0476-2.766-8.6345-5.4512-12.877-10.88-17.189-16.525-13.125-28.645-18.477-47.504-20.977-7.7338-1.0251-28.269 1.2844-37.182 4.1818-4.3828 1.4247-9.8672 3.1161-12.188 3.7587-2.3203 0.64258-5.1878 1.5463-6.3722 2.0082-3.2377 1.2627-4.3623 1.0717-3.0437-0.51704 0.61938-0.7463 2.9914-2.0692 5.271-2.9399 2.2797-0.87062 4.1449-1.9685 4.1449-2.4397 0-1.4099-36.32-0.11624-41.393 1.4743-6.978 2.1878-17.009 7.771-20.522 11.422-1.7827 1.853-4.0195 3.7925-4.9706 4.3101-1.5026 0.81764-1.6431 0.66941-1.0718-1.1307l0.65753-2.0717-3.8697 2.1749c-7.5183 4.2255-16.396 15.774-16.197 21.069 0.11097 2.9521-0.33566 3.5491-4.7712 6.3777-11.109 7.084-18.354 12.387-27.982 20.48-3.3473 2.8138-12.861 6.8383-13.843 5.8562-1.1435-1.1435 1.7778-3.8135 6.0932-5.5691 4.6618-1.8965 13.481-8.1485 20.739-14.702 2.1799-1.9684 4.8154-3.5789 5.8567-3.5789 2.8863 0 8.9145-6.0048 10.328-10.288 0.68997-2.0906 1.8178-4.2686 2.5062-4.84s1.2518-1.5552 1.2518-2.1863c0-1.8134 2.8968-7.1446 5.057-9.3069 2.4308-2.4331 21.84-14.106 28.224-16.975 9.5639-4.2972 20.617-6.39 34.808-6.5903 7.285-0.10285 13.72-0.48035 14.3-0.83889 0.58013-0.35854 7.6978-1.0821 15.817-1.6079 8.1192-0.52581 16.45-1.1444 18.512-1.3747 2.0625-0.23028 9.8672-0.56242 17.344-0.73807 11.253-0.26437 14.583-0.017242 19.341 1.4351 3.1609 0.96497 6.2614 2.3742 6.89 3.1317 0.62863 0.75746 3.3159 2.3825 5.9717 3.6113s7.0372 3.8772 9.7366 5.8855c2.6993 2.0082 7.2874 5.3388 10.196 7.4013 6.8782 4.8778 11.204 10.23 13.38 16.554 0.96474 2.8041 2.6923 6.9374 3.8391 9.1852 3.1581 6.1903 4.482 11.665 5.6006 23.158 1.2066 12.397 3.8023 25.101 6.551 32.061 1.9937 5.0483 2.0959 8.5247 0.51843 17.637-0.57144 3.3009-0.35453 4.2476 1.3961 6.0938 6.4315 6.7822 4.2106 17.491-5.1003 24.593-2.7794 2.1199-3.2585 3.1134-3.7729 7.8231-0.32407 2.9671-1.6203 10.918-2.8805 17.668-3.042 16.295-3.0877 15.737 1.2244 14.946 1.9336-0.35488 5.4831-1.899 7.8878-3.4314 5.7645-3.6734 9.8439-4.2655 15.226-2.21 4.9276 1.8819 7.1205 5.2417 7.1205 10.91 0 4.5037-1.4585 4.7136-2.2812 0.3284-0.33818-1.8026-1.5453-4.356-2.6825-5.6741-3.7304-4.3239-12.576-4.6347-16.894-0.59354-1.1265 1.0541-4.3405 2.6838-7.1422 3.6215-6.0918 2.0389-7.8115 4.5322-2.4296 3.5225 2.2047-0.4136 4.2721-0.2105 5.7143 0.56134 1.8943 1.0138 2.5266 0.98019 3.9095-0.20778 2.6301-2.2594 3.8237-2.7355 4.4237-1.7647 0.93766 1.5172-3.3716 3.1561-9.1602 3.484-3.0155 0.17078-5.9159 0.5782-6.4452 0.90537-1.6596 1.0257 1.3272 2.2059 5.6211 2.2211 2.4513 8e-3 3.8119 0.38297 3.4603 0.95185-0.31867 0.51562-1.3708 0.9375-2.338 0.9375-0.96725 0-2.932 0.4461-4.366 0.99133-3.923 1.4915-0.93875 2.9331 4.5947 2.2195 2.5485-0.32866 4.4531-0.19915 4.4531 0.30279 0 1.0678-6.3146 3.0489-9.7181 3.0489-1.3582 0-2.4694 0.42187-2.4694 0.9375 0 1.3412 5.3087 1.1567 11.279-0.39188 2.8187-0.73117 5.2718-1.1825 5.4514-1.0029 0.8821 0.88208-7.5469 4.0963-12.299 4.6901-2.9663 0.37062-5.6235 1.0464-5.9049 1.5018-0.80683 1.3055 10.023 0.965 15.132-0.47573 8.6665-2.4438 9.3238-2.5263 7.774-0.9765-0.75592 0.75593-4.0944 2.0536-7.4188 2.8837-6.8035 1.6988-8.5011 2.6988-7.7784 4.582 0.31861 0.83028-0.37753 1.5183-1.9307 1.9081-1.336 0.3353-2.429 0.98577-2.429 1.4455 0 1.2704 4.7846 1.0004 9.9291-0.56024 2.5312-0.76785 5.2349-1.382 6.0084-1.3648 2.2514 0.0501-4.7907 3.3736-8.9062 4.2033-2.0625 0.41581-4.0664 0.84146-4.4531 0.94589-0.38672 0.10443-1.4203 0.24261-2.2969 0.30706-1.2212 0.0898-1.3361 0.37483-0.49167 1.2193s2.811 0.73487 8.412-0.46875c8.438-1.8132 8.6734-1.8345 8.6734-0.78306 0 0.43327-2.4258 1.3014-5.3906 1.9292-11.912 2.5224-16.229 4.9646-11.065 6.2605 1.5464 0.38812 2.336 1.1661 2.176 2.144-0.20887 1.2763 0.5382 1.4935 4.4363 1.2896 7.1631-0.37469 10.778-1.8319 10.604-4.2753-0.38381-5.4154 8.4367-25.811 10.588-24.481 0.47841 0.29567 0.72646 0.82484 0.55123 1.1759-0.17524 0.35108-1.9751 4.0133-3.9997 8.1383l-3.6811 7.5-0.30105 13.207-0.30104 13.207-7.199 1.0957c-3.9594 0.60262-9.178 1.0929-11.597 1.0895-4.6631-7e-3 -6.7348 1.3334-3.6 2.3283 1.7836 0.56609 11.929 6e-3 18.626-1.0293 2.9186-0.4509 3.0828-0.33798 2.4492 1.6838-0.37357 1.1919-1.5144 3.2218-2.5351 4.5109l-1.8559 2.3438 0.63431-2.9615 0.63431-2.9615-9.6651 0.45813c-10.328 0.48954-12.009 0.76027-12.009 1.934 0 0.41073 3.6914 0.80898 8.2031 0.885 11.443 0.19278 11.079 0.14523 9.927 1.2969-0.54717 0.54717-5.3776 1.3074-10.734 1.6893l-9.7395 0.69448 8.4375 0.83167c9.8676 0.97264 7.663 2.0402-4.6875 2.2698-4.9203 0.0915-7.0066 0.42841-6.0656 0.97961 1.7861 1.0462 18.884 1.568 20.413 0.62294 0.72803-0.44995 1.1218-0.0344 1.1218 1.1839 0 1.984-3.5098 5.0551-4.8386 4.2338-0.4307-0.26618-1.7214 0.17329-2.8683 0.9766-2.0637 1.4455-2.0516 1.4617 1.1702 1.5715l3.2555 0.11092-2.8125 0.71566c-1.5469 0.39361-5.4492 0.76557-8.6719 0.82658-3.2226 0.061-5.8595 0.42733-5.8597 0.81404-3.3e-4 0.67859 14.701 0.4805 30.703-0.41371 5.1638-0.28855 7.7344-0.0969 7.7344 0.5767 0 0.55489-1.3711 1.0502-3.0469 1.1008-1.6758 0.0505-10.425 0.5779-19.443 1.1719-14.843 0.97764-16.429 1.2472-16.733 2.8455-0.29097 1.5253 0.0266 1.6639 2.3341 1.0186 1.469-0.4108 6.6787-0.84938 11.577-0.97463s15.867-0.5105 24.375-0.8561c9.869-0.40091 15.008-0.30551 14.197 0.26354-0.69938 0.49056-5.34 0.96766-10.312 1.0602-4.9725 0.0925-15.58 0.77322-23.572 1.5126s-15.27 1.3492-16.172 1.3553c-0.90234 7e-3 -1.6406 0.68351-1.6406 1.5053 0 1.2313 0.78363 1.4018 4.4531 0.96912 9.2022-1.0851 28.933-1.5719 31.641-0.78055 3.153 0.92158-1.9279 1.4916-23.672 2.6556-10.583 0.56654-11.484 0.75934-11.484 2.4573 0 1.177 0.465 1.6641 1.2874 1.3485 0.70804-0.27171 6.1924-0.79606 12.188-1.1652 7.9053-0.4868 10.9-0.37863 10.9 0.39371 0 0.66637-2.0175 1.0813-5.3906 1.1087-7.4657 0.0607-17.336 2.0338-17.846 3.5676-0.34473 1.0373 1.2598 1.147 8.8294 0.6038 5.0879-0.36511 11.149-0.95873 13.469-1.3192s5.9062-0.57363 7.9688-0.47376c2.0625 0.0999 4.7241 0.22852 5.9147 0.28592s1.9448 0.46021 1.676 0.89515c-0.26881 0.43495-6.9382 1.068-14.821 1.4068-18.08 0.77708-22.301 1.3811-22.301 3.1914 0 1.0216 0.68618 1.2516 2.5781 0.86439 1.418-0.29023 15.986-1.043 32.374-1.6727 23.461-0.90155 30.039-0.90158 30.938-1.7e-4 0.89833 0.90091 0.34259 1.1176-2.6085 1.017-3.8991-0.13288-20.07 0.54566-37.031 1.5539-20.682 1.2293-24.375 1.8014-24.375 3.7754 0 0.8894 0.58861 1.2049 1.6406 0.87928 3.7305-1.1545 35.246-2.482 36.203-1.5249 0.66676 0.66676-0.0396 0.97171-2.2656 0.97809-1.7789 5e-3 -9.3516 0.49705-16.828 1.0932-7.4766 0.59618-14.769 1.0737-16.206 1.0611-1.5036-0.0131-2.4644 0.41804-2.2643 1.0162 0.3694 1.1041 16.097 1.3072 40.501 0.52321 12.862-0.41321 17.344 0.12773 17.344 2.0933 0 0.65985-1.7697 0.73047-5.3906 0.21512-2.9648-0.42198-8.7656-0.63352-12.891-0.47009-4.125 0.16344-14.672 0.56555-23.438 0.89359-9.8458 0.36846-15.855 0.95477-15.721 1.5339 0.30771 1.3298 12.128 1.9805 23.191 1.2767 5.1726-0.32908 9.772-0.25709 10.221 0.15997 1.0982 1.0202-4.7729 1.7565-20.504 2.5711-7.9672 0.41262-13.028 1.0481-12.877 1.6172 0.15805 0.59856 5.92 0.78971 15.938 0.52871 23.181-0.60395 30.671-0.43304 32.657 0.74521 1.4066 0.83439 3e-3 1.0348-6.6546 0.94991-7.4221-0.0947-19.018 0.68196-39.844 2.6685-6.0687 0.57888-6.0784 0.58441-2.3438 1.3446 2.0625 0.41985 6.9858 0.51847 10.941 0.21915s8.5955-0.23545 10.312 0.14193c3.1081 0.68313 3.1115 0.68996 0.7785 1.5535-1.2888 0.47705-8.0388 0.89855-15 0.93666-6.9612 0.0382-13.495 0.37567-14.521 0.75011-3.6328 1.3269 12.638 2.0486 32.599 1.4459 13.327-0.40237 19.408-0.29271 18.428 0.33236-0.80406 0.51309-13.682 1.3049-28.618 1.7595-17.974 0.54711-27.782 1.2044-29.007 1.9438-1.4542 0.87776 1.7158 0.98476 14.79 0.4992 10.748-0.39917 16.641-0.29011 16.641 0.30799 0 0.8994-18.621 2.1542-31.968 2.1542-3.6847 0-6.632 0.44186-7.0083 1.0507-0.47535 0.76913 4.2202 0.90479 17.523 0.50625 15.267-0.45739 17.601-0.3576 14.601 0.62436-1.9641 0.64283-3.9385 1.7632-4.3875 2.4898-0.52848 0.8551-3.402 1.537-8.1477 1.9335l-7.3312 0.61248 5.625 0.29003c7.5348 0.38849 9.0062 0.1931 10.805-1.4349 0.8415-0.76154 3.2596-1.3846 5.3736-1.3846s4.4353-0.59169 5.1585-1.3149c1.9267-1.9267 12.657-2.4718 11.49-0.58366-0.31597 0.51124-2.3513 0.66911-4.6192 0.35825-2.5499-0.3495-4.2947-0.16683-4.702 0.49229-0.43038 0.69635 0.4575 1.048 2.6462 1.048 4.029 0 13.732 3.4341 19.875 7.0342 5.5095 3.2288 3.9221 4.2688-2.1554 1.4121-2.3908-1.1238-7.1121-2.8974-10.492-3.9412-10.253-3.1668-24.803-0.92227-29.224 4.5082-1.214 1.4911-1.1627 1.5819 0.53147 0.9412 3.2905-1.2444 10.896-2.4545 15.427-2.4545 7.1238 0 20.484 4.5828 19.238 6.599-0.32609 0.52762-1.7797 0.25924-3.5463-0.65471-7.3951-3.826-13.914-4.3669-27.014-2.2412-7.7027 1.2498-8.5883 1.2341-7.7406-0.13748 0.38135-0.61702-0.63569-0.17551-2.2601 0.98115-3.6988 2.6338-4.8012 4.2673-2.4244 3.5924 5.0279-1.4277 8.1383-1.5672 14.031-0.62957 3.5624 0.56686 7.5231 1.7135 8.8016 2.5482 3.4206 2.233 0.85213 2.6105-5.5462 0.81524-10.717-3.0069-28.461-0.68489-36.511 4.7778-1.752 1.1889-3.5485 2.1617-3.9922 2.1617s-0.80667 0.36453-0.80667 0.81007 1.9484 1.0771 4.3299 1.4036c4.8924 0.67057 15.358 5.0674 15.358 6.4522 0 0.50038-0.73828 0.6127-1.6406 0.24961-4.0443-1.6274-10.629-3.2356-17.109-4.1789-5.7995-0.84416-7.9345-0.76851-12.188 0.43192-26.861 7.5816-37.582 7.7626-50.561 0.85356-2.3474-1.2496-5.537-2.258-7.088-2.2409l-2.82 0.0312 2.3438 1.7955c1.2891 0.98751 3.1864 2.5555 4.2163 3.4844 1.0299 0.92892 2.8796 1.7735 4.1104 1.8768 1.2308 0.10334 5.1139 0.84204 8.629 1.6416 3.5152 0.7995 9.6811 1.4328 13.702 1.4072 4.021-0.0256 12.499 0.3195 18.84 0.76677 16.129 1.1377 40.297-1.5192 45.649-5.0184 1.0362-0.67746 8.6341-3.1551 16.884-5.5059 8.25-2.3508 16.688-5.0948 18.75-6.0979 9.947-4.8374 13.931-5.7648 13.423-3.1242-0.19271 1.0007-2.5907 2.447-6.3969 3.8583-12.012 4.4537-24.666 8.5726-28.003 9.1148-1.8688 0.30359-6.7049 2.0586-10.747 3.9001-4.1064 1.8708-9.8978 3.6752-13.125 4.0894-3.1766 0.40768-9.1507 1.2237-13.276 1.8135-9.3792 1.3409-30.631 1.2158-34.022-0.20024-3.9506-1.6501-19.237-3.1252-40.041-3.8638-5.7128-0.20282-10.226-0.95763-13.975-2.3373-3.902-1.436-7.6686-2.0378-12.754-2.0378-8.2108 0-10.412 1.3012-13.957 8.2509-1.0663 2.0901-2.8763 4.0978-4.0223 4.4615-1.1459 0.36371-4.4737 2.2928-7.3951 4.2869s-5.6885 3.6256-6.1492 3.6256c-2.2506 0-8.3849 4.3179-13.316 9.3731l-5.4889 5.6269h-5.7127c-3.142 0-5.9513-0.386-6.2429-0.85777-0.29156-0.47176 0.94638-2.7921 2.751-5.1562 3.4996-4.5847 3.3463-5.3981-0.45651-2.4235-1.2891 1.0083-2.9424 1.8427-3.6742 1.8542-0.73175 0.0114-3.4739 1.2301-6.0938 2.7081-4.9559 2.796-9.5491 4.093-11.56 3.2643zm30.853-6.124c2.7533-2.1573 6.4855-5.4269 8.2937-7.2656 1.8082-1.8388 6.4488-5.4018 10.312-7.918 3.8637-2.5161 8.7124-6.3313 10.775-8.4781 2.0625-2.1468 5.6484-5.497 7.9688-7.4448 4.7995-4.0289 5.2558-3.1991-5.2247-9.5023-3.4294-2.0625-8.6138-5.7718-11.521-8.2428-4.5792-3.8923-5.7242-4.4376-8.5669-4.0797-6.2578 0.78793-10.875 2.4155-17.842 6.2894-16.032 8.9145-18.385 10.102-21.159 10.676-3.918 0.81055-15.139 6.8484-19.553 10.521-2.3753 1.9765-3.386 3.472-3.0095 4.4531 0.84315 2.1972 3.7795 1.8052 10.001-1.3353 3.0643-1.5469 6.1735-2.8125 6.9093-2.8125 0.73578 0 3.7438-1.2656 6.6844-2.8125 2.9407-1.5469 6.1227-2.8125 7.0711-2.8125s1.9852-0.42188 2.3039-0.9375c0.779-1.2604 4.4638-1.204 4.0419 0.0619-0.4016 1.2048-5.0518 3.7934-11.914 6.6319-4.3362 1.7937-5.8438 3.1637-10.547 9.5843-3.0181 4.1203-5.4875 8.4714-5.4875 9.6692s0.21141 2.1777 0.46979 2.1777c0.25839 0 2.0746-1.6537 4.0361-3.6749s7.3399-5.652 11.952-8.0686 9.6708-5.1738 11.242-6.1272c3.6223-2.1988 10.738-3.4504 10.738-1.8888 0 0.60784-1.3924 1.6869-3.0942 2.398-3.5185 1.4701-17.531 15.684-17.531 17.783 0 0.75901-0.91852 2.2357-2.0412 3.2816-2.1018 1.9581-1.6407 3.9719 0.53962 2.357 0.67158-0.49739 2.8948-2.0213 4.9406-3.3864 2.0457-1.3652 4.4389-3.58 5.3181-4.9219 0.87924-1.3419 2.0509-2.4398 2.6037-2.4398s4.6081-2.7811 9.0117-6.1803c6.4642-4.9897 8.3637-6.021 9.8602-5.3532 1.7314 0.77258 1.6027 1.1026-1.9535 5.0084-3.8472 4.2254-4.3358 5.0013-7.2916 11.579-0.90153 2.0062-2.4066 3.8484-3.3446 4.0937-1.7165 0.44888-2.4428 3.0398-0.85219 3.0398 0.46932 0 3.106-1.7651 5.8594-3.9224zm-40.931-1.7026c0.31868-0.51563-0.28924-0.9375-1.3509-0.9375s-1.9303 0.42187-1.9303 0.9375c0 0.51562 0.60791 0.9375 1.3509 0.9375s1.6116-0.42188 1.9303-0.9375zm-31.875-10.312c-0.32007-0.51788-4.541-0.9375-9.4303-0.9375-5.2756 0-8.8509 0.3787-8.8509 0.9375 0 0.56287 3.7684 0.9375 9.4303 0.9375 6.0482 0 9.2225-0.33623 8.8509-0.9375zm32.344-1.875c0-0.51563-1.0796-0.9375-2.3991-0.9375-1.3606 0-2.1483 0.40579-1.8197 0.9375 0.31868 0.51562 1.3983 0.9375 2.3991 0.9375s1.8197-0.42188 1.8197-0.9375zm-38.438-3.75c1.1372-0.73488 1.0026-0.91153-0.70312-0.92315-1.1602-8e-3 -2.1094 0.40752-2.1094 0.92315 0 1.1746 0.99491 1.1746 2.8125 0zm27.188 0c0-0.51563-0.42188-0.9375-0.9375-0.9375-0.51563 0-0.9375 0.42187-0.9375 0.9375 0 0.51562 0.42187 0.9375 0.9375 0.9375 0.51562 0 0.9375-0.42188 0.9375-0.9375zm-5.9962-1.3866c3.8155-1.5942 3.6046-3.771-0.22431-2.3152-1.3223 0.50271-3.2996 1.5413-4.3942 2.3079-1.7101 1.1978-1.7586 1.3939-0.34509 1.3939 0.90473 0 3.1383-0.62397 4.9636-1.3866zm-30.82-1.0548c-0.31153-0.31152-1.1201-0.34482-1.7969-0.074-0.74787 0.29927-0.52573 0.52142 0.56641 0.5664 0.98827 0.0407 1.542-0.18087 1.2305-0.49239zm-18.871-1.0583c-0.37797-0.37797-2.2413-1.182-4.1406-1.7868-1.8994-0.60479-5.5628-1.9277-8.1409-2.9398-16.261-6.3834-15.213-6.0491-12.66-4.0398 1.2873 1.0129 5.2951 2.9647 8.9062 4.3375 3.6112 1.3727 7.8314 3.0584 9.3783 3.746 3.0044 1.3355 7.8012 1.8276 6.6565 0.68288zm30.332-0.92141c2.3436-0.32045 6.2208-1.5662 8.616-2.7683s4.6281-2.1856 4.9619-2.1856c3.0344 0 18.351-15.343 18.335-18.366-5e-3 -0.89124-5.4532 4.7534-7.7409 8.0195-2.8692 4.0963-18.756 13.159-23.068 13.159-2.3649 0-8.5616 2.4129-8.5616 3.3337 0 0.33929 0.7192 0.34091 1.5982 4e-3 0.87903-0.33731 3.5158-0.87549 5.8594-1.1959zm-8.7599-2.5413c10.478-1.4084 20.939-6.3512 29.16-13.779 4.5812-4.1388 7.2712-7.9033 10.688-14.957 1.4792-3.0536 3.0801-5.5519 3.5576-5.5519 0.47755 0 1.7946-1.4988 2.9267-3.3306 2.4744-4.0037 3.5379-3.5661 1.7555 0.72238-0.70338 1.6923-1.1555 3.8152-1.0048 4.7176 0.15539 0.93004-0.31078 1.6406-1.0763 1.6406-0.74271 0-1.8458 0.59697-2.4514 1.3266-0.91443 1.1018-0.57648 1.3004 1.9946 1.1719 3.0235-0.15113 3.1567-0.34031 5.7201-8.1235 5.8825-17.861 6.9799-32.196 3.8036-49.688-0.66024-3.6358-4.6969-10.008-9.4612-14.935-1.7104-1.7688-3.3467-4.1597-3.6362-5.3132-0.92308-3.6778-13.153-13.236-22.862-17.868-8.1838-3.904-11.674-4.5349-24.59-4.4458l-10.996 0.0759-7.7537 4.0385c-4.2645 2.2212-9.4846 5.4523-11.6 7.1803-4.3782 3.5761-5.0729 3.8119-4.4221 1.5012 0.39827-1.4142 8.0849-8.4054 11.694-10.636 0.66451-0.41069 0.92041-1.0345 0.56865-1.3863-1.0184-1.0184-10.069 2.3098-14.418 5.3022-2.1867 1.5044-4.3702 2.7354-4.8523 2.7354-2.0247 0-6.0737 4.3216-10.802 11.529-6.7689 10.318-9.7064 17.451-10.889 26.44-0.54272 4.125-1.427 10.453-1.9651 14.062-1.008 6.762-0.55721 18.602 0.90207 23.69 0.4555 1.5883 0.65027 3.0656 0.43281 3.2831-0.68327 0.68327 2.2098 6.5626 5.9943 12.182 4.8744 7.2372 18.479 21.161 21.389 21.891 3.1813 0.79844 3.9844-0.30813 1.4911-2.0545-1.1262-0.78881-3.8429-3.38-6.0372-5.7581-2.1943-2.3782-4.9388-5.1741-6.099-6.2133-1.1602-1.0391-2.1094-2.8828-2.1094-4.097s-0.61118-3.142-1.3582-4.2841c-4.9654-7.5912-2.2097-27.134 5.2487-37.222 1.4331-1.9383 1.7922-3.1402 1.1348-3.7976-2.0916-2.0916-4.0309 0.38891-6.503 8.3179-3.9051 12.525-4.956 18.759-4.3782 25.969 0.48904 6.1029 0.41739 6.444-1.0909 5.1939-2.6194-2.171-4.3032-6.264-4.3032-10.46 0-3.461 4.6054-19.268 8.1087-27.831 1.903-4.6516 2.6699-13.055 1.3378-14.66-1.8867-2.2734-0.17699-7.671 3.8952-12.297 4.3559-4.9485 5.6407-4.903 2.5545 0.0905-1.7215 2.7855-2.2157 5.2229-2.576 12.706-0.43534 9.0406-0.3974 9.2588 1.6098 9.2588 1.1317 0 1.7952-0.42138 1.4763-0.9375-0.31867-0.51563 0.18377-0.93772 1.1165-0.93797 3.3868-9.4e-4 12.071-3.9288 14.634-6.6187 1.4441-1.5157 2.9845-2.7559 3.423-2.7559 0.43856 0 1.6686-1.4766 2.7334-3.2812 1.8079-3.0642 4.8117-4.5022 4.8117-2.3035 0 1.8406-7.5725 11.01-9.5113 11.517-1.0666 0.27892-1.7479 1.0605-1.5168 1.7402 0.29819 0.87701 1.934 1.1411 5.6563 0.91331 8.1709-0.50008 20.848 3.4157 21.851 6.7495 0.33243 1.1047 2.4519 4.7507 4.7098 8.1023 3.7332 5.5413 4.2482 7.0222 5.6798 16.335 1.9245 12.519 1.2244 16.9-4.518 28.276-4.6842 9.2791-5.4939 9.7291-18.814 10.454-5.0155 0.27292-8.8892 0.86819-8.6083 1.3228 1.9293 3.1217 15.806 6.7483 22.415 5.858 1.0312-0.13894 3.6093-0.48572 5.729-0.77063zm-20.089-3.2244c-0.75304-0.47751 1.8079-1.0341 6.5625-1.4264 11.867-0.97898 13.93-1.8002 17.088-6.8018 6.7514-10.692 10.177-23.309 10.082-37.132-0.031-4.5117 0.28852-8.2031 0.71019-8.2031s1.2647 2.5312 1.8733 5.625c0.60865 3.0938 1.3608 5.625 1.6715 5.625 0.31065 0 0.32679-4.7461 0.0359-10.547-0.52452-10.459-0.51838-10.5 0.73407-4.9219 1.6263 7.2429 1.7289 15.908 0.20729 17.511-0.69979 0.73714-1.1991 3.8965-1.233 7.8013-0.0799 9.2174-2.6844 16.83-7.2861 21.296-4.0652 3.9451-4.0423 5.7167 0.0393 3.0423 4.7321-3.1006 12.35-11.901 15.721-18.16 1.8297-3.3979 4.6078-8.2874 6.1736-10.866 11.313-18.628 12.969-30.793 6.0367-44.34-1.9252-3.7622-3.2757-7.0652-3.0009-7.34 0.81008-0.81008 10.723 11.737 12.853 16.269 1.0772 2.2916 2.2055 6.8111 2.5073 10.043 0.47949 5.1346 0.10953 7.195-2.9297 16.316-1.9132 5.7416-3.8838 10.69-4.3792 10.996-0.8441 0.52168-0.45041-2.685 0.75663-6.163 2.5121-7.2384 4.1007-23.438 2.2984-23.438-0.4438 0-1.0529 2.0772-1.3536 4.6159-0.30067 2.5388-0.97823 5.3864-1.5057 6.3281-1.4788 2.6402-6.6464 14.216-6.6464 14.888 0 0.32862-0.7884 1.7173-1.752 3.086-0.96361 1.3686-2.074 3.5432-2.4676 4.8322-1.3335 4.3673-8.8574 15-14.57 20.59-6.1147 5.9832-12.059 8.8621-21.523 10.424-6.4311 1.0612-15.068 1.087-16.704 0.0499zm47.09-49.579c0.0639-5.6408-0.3087-7.8422-1.6661-9.8438-0.96165-1.418-1.3178-2.5781-0.79147-2.5781 0.52634 0 2.3132 2.0039 3.9708 4.4531 2.6525 3.9192 2.9352 4.117 2.3578 1.65-0.36085-1.5417-1.0446-3.0432-1.5194-3.3367-1.4268-0.88178-7.4217-11.311-8.0049-13.926l-0.54293-2.4342 2.3809 2.8125c1.3095 1.5469 4.1256 5.9766 6.2582 9.8438 3.4048 6.1744 3.8108 7.537 3.3318 11.181-0.30004 2.2826-1.1762 4.8471-1.947 5.6988-0.77079 0.85171-1.4014 2.0427-1.4014 2.6466 0 0.60393-0.56438 1.0981-1.2542 1.0981-0.94644 0-1.234-1.7828-1.1719-7.2656zm-12.075-19.825c-0.62495-1.969-1.4669-2.3044-8.4682-3.3738-5.4217-0.82807-7.0312-1.4079-7.0312-2.5329 0-0.63048 1.5953-0.81643 4.3452-0.50648 2.6687 0.3008 3.8443 0.17252 3.0469-0.33247-0.71407-0.45223-3.0913-0.8287-5.2827-0.8366-4.3811-0.0157-5.3583-1.5088-1.6042-2.451 1.6712-0.41945 4.1843 0.29079 8.4375 2.3846 3.3315 1.6401 6.0573 3.3473 6.0573 3.7938 0 0.44648 0.69007 1.5018 1.5335 2.3453 1.0582 1.0582 1.2324 1.8346 0.56188 2.5051s-1.1651 0.3619-1.596-0.99559zm-74.562-1.5028c0-0.77344 0.42188-1.4062 0.9375-1.4062s0.9375 0.63281 0.9375 1.4062-0.42188 1.4062-0.9375 1.4062-0.9375-0.63281-0.9375-1.4062zm75.547-9.9871c-3.1863-4.7314-4.3952-8.1077-2.479-6.9234 1.3315 0.82293 6.8928 10.856 6.3296 11.42-0.27039 0.27038-2.0032-1.7529-3.8506-4.4962zm-79.282-7.9816c0.02356-1.2825 1.0801-2.3875 7.9176-8.2813 3.5892-3.0938 8.0036-7.2526 9.81-9.2419 1.8063-1.9893 3.4305-3.1781 3.6093-2.6417 0.75085 2.2525-3.044 6.9604-9.7224 12.062-3.9222 2.9959-8.1433 6.2205-9.3801 7.1659s-2.2424 1.3672-2.2345 0.9375zm103.58-1.7459c-2.0625-0.74303-4.4883-1.3573-5.3906-1.3651-0.90234-7e-3 -1.6406-0.56417-1.6406-1.2365 0-1.5458-4.8772-6.0822-10.15-9.4404-2.2307-1.4208-8.9319-4.2647-14.892-6.3197-9.2674-3.1955-12.107-3.7635-19.616-3.9238-8.7275-0.18634-11.164-1.4023-5.2378-2.6143 1.6136-0.33002 4.4867-1.3369 6.3845-2.2375 2.5896-1.2288 4.6191-1.4824 8.1331-1.0163 5.2885 0.70155 17.287 6.1752 25.201 11.497 15.84 10.651 18.568 12.718 18.002 13.633-0.33949 0.5493-0.17614 0.72458 0.36409 0.39069 0.5389-0.33305 1.6685 0.44552 2.5102 1.7302 1.7548 2.6781 1.4607 2.7505-3.6691 0.90241zm-40.781-24.817c0-0.51563-0.94922-0.93104-2.1094-0.92315-1.7057 0.0116-1.8403 0.18827-0.70313 0.92315 1.8176 1.1746 2.8125 1.1746 2.8125 0zm-21.562 24.863c0-1.0706 7.4226-4.051 11.719-4.7054 9.8686-1.5032 21.09 0.41135 22.398 3.8217 0.64917 1.6917-0.31305 1.674-6.4812-0.11913-4.5122-1.3117-6.0062-1.3117-15.411 0-11.442 1.5958-12.225 1.6601-12.225 1.0028zm189.38 89.636c0-1.0671-10.063-3.8735-13.89-3.8735-5.4202 0-3.1072 1.657 4.2802 3.0665 9.2045 1.7561 9.6094 1.7901 9.6094 0.80707zm30-1.061c0-0.51563-0.82813-0.9375-1.8403-0.9375-1.0122 0-3.9809-0.84375-6.5972-1.875-4.9628-1.9561-12.188-2.5318-12.188-0.97104 0 1.3565 11.088 4.5332 16.172 4.6334 2.4492 0.0482 4.4531-0.33419 4.4531-0.84981zm-255.92-1.1658c4.258-1.3289 4.3739-1.5878 2.0152-4.5007l-1.72-2.1242-2.9675 2.644c-2.9055 2.5888-3.907 5.1466-2.0152 5.1466 0.52374 0 2.6331-0.5246 4.6875-1.1658zm269.39-1.3054c4.971-0.68135 5.8696-2.2137 1.3027-2.2216-1.6758-3e-3 -4.7007-0.46439-6.722-1.0256-3.7009-1.0275-14.392-0.32-13.203 0.87378 0.68012 0.68294 9.1189 2.6324 12.294 2.8401 1.0882 0.0711 3.9358-0.13885 6.3281-0.46675zm-231.9-2.161c0-1.1061-1.8285-2.2894-2.5-1.6178-0.67154 0.67155 0.51171 2.5 1.6178 2.5 0.4852 0 0.88217-0.39698 0.88217-0.88217zm64-5.1617c3.7833-6.4393 2.7251-7.186-1.4334-1.0114-3.7796 5.6121-4.1276 6.482-2.3566 5.8916 0.63104-0.21035 2.3365-2.4064 3.7899-4.8802zm110.04 4.1689c3.1923 0 2.7109-1.2871-1.1745-3.1399-2.1827-1.0409-3.7607-1.2996-4.4531-0.73012-0.58983 0.48511-3.0763 1.1803-5.5256 1.545-4.3764 0.65152-5.5944 1.6531-3.2812 2.6983 0.64454 0.29125 3.6596 0.3264 6.7 0.0781 3.0405-0.24828 6.521-0.45142 7.7344-0.45142zm-183.07-3.3279c-0.94326-1.4396-1.8357-2.0647-2.0461-1.4333-0.38178 1.1454 2.6145 5.091 3.3258 4.3796 0.21624-0.21623-0.35963-1.542-1.2797-2.9463zm192.3 1.8581c0-1.4135-18.327-18.379-26.494-24.526-7.3635-5.5419-14.349-8.6919-19.276-8.6919-4.0528 0-7.4052 3.0644-7.0175 6.4149 0.26434 2.2845 0.72249 2.5381 5.5177 3.0538 6.4841 0.69728 19.349 6.7895 27.451 13 3.2028 2.4548 7.0739 5.1137 8.6025 5.9085 1.5285 0.79487 3.8184 2.5575 5.0886 3.917 2.2583 2.4171 6.1281 3.0006 6.1281 0.92399zm62.882 0.41704c2.2996-0.57904 4.4159-1.4328 4.7029-1.8971 0.46239-0.74817-1.8011-0.58885-8.5224 0.59985-1.0312 0.18239-2.4272 0.36389-3.1022 0.40334-1.683 0.0984-0.41438 1.9467 1.3362 1.9467 0.77249 0 3.286-0.47377 5.5856-1.0528zm-173.98-0.29811c0-0.98951-1.7992-1.4052-2.3343-0.53937-0.32387 0.52403 0.0688 0.95279 0.87272 0.95279 0.80387 0 1.4616-0.18604 1.4616-0.41342zm129.38-1.1534c0-1.4162-3.2281-4.0582-4.9584-4.0582-1.0204 0-3.5918 0.47005-5.7141 1.0446-7.082 1.9171-6.7867 1.7626-5.2387 2.7415 1.5676 0.99135 15.911 1.2367 15.911 0.27212zm-120.13-1.6697c2.1224-0.74884 5.8641-2.5366 8.3147-3.9727 6.2961-3.6898 2.8396-3.9644-4.332-0.3442-3.1226 1.5763-6.9552 2.866-8.5167 2.866-2.7115 0-3.5618 0.83997-2.2142 2.1875 0.93665 0.93665 2.4849 0.76767 6.7483-0.73654zm135.02-0.14548c0.95781-0.82935-5.2681-2.243-9.8786-2.243-5.4465 0-6.6598 1.6634-2.1351 2.9273 2.0756 0.57982 11.151 0.0628 12.014-0.68435zm-54.974-0.99192c2.4492-0.30366 4.4531-0.83242 4.4531-1.175 0-1.1354-6.9013-3.7728-7.9129-3.024-0.54633 0.40438-2.7643 1.2934-4.9288 1.9755-2.1645 0.68215-4.1766 1.8686-4.4713 2.6366-0.44776 1.1668 0.19897 1.293 3.9354 0.76768 2.4592-0.34575 6.4752-0.87709 8.9244-1.1808zm69.93-0.95974c0.33926-0.5205 3.7809-1.27 7.6481-1.6655s9.5625-0.98641 12.656-1.3131l5.625-0.59399-4.4197-1.2844c-3.6296-1.0548-5.5569-1.0766-10.781-0.12208-3.4989 0.63925-7.6272 1.7286-9.1741 2.4207-1.5469 0.69216-4.8889 1.3799-7.4267 1.5283-2.9068 0.17002-4.7725 0.75014-5.042 1.5678-0.34181 1.037 0.65014 1.2085 4.9349 0.85321 2.9495-0.24459 5.6402-0.87057 5.9795-1.3911zm30.148-2.1663c0-0.51563-0.63281-0.9375-1.4062-0.9375s-1.4062 0.42187-1.4062 0.9375c0 0.51562 0.63281 0.9375 1.4062 0.9375s1.4062-0.42188 1.4062-0.9375zm-271.56-4.3092c-1.1542-2.6599-1.691-3.1988-1.9649-1.9728-0.36792 1.6466 2.3408 6.8445 3.1468 6.0386 0.22338-0.22338-0.30847-2.053-1.1819-4.0657zm160.89 2.1228 6.9802-2.1508-3.9767-1.5912c-2.5932-1.0376-4.5324-1.3045-5.5739-0.76728-0.87849 0.45312-3.1369 1.1015-5.0187 1.4408-4.395 0.79251-6.2773 2.828-3.8962 4.2132 2.4017 1.3972 3.635 1.2743 11.485-1.1447zm-136.39-0.23551c-0.0215-0.47266-1.1417-4.4453-2.4895-8.8281s-2.7169-9.1589-3.0425-10.613c-0.33969-1.5177-1.0766-2.4665-1.7292-2.2266-0.62551 0.22999-0.9899 0.99824-0.80976 1.7072 4.782 18.82 5.7109 21.62 7.0268 21.181 0.59573-0.19857 1.0656-0.74777 1.0442-1.2204zm166.45-0.39063c-0.77344-0.49984-2.25-0.90878-3.2812-0.90878-1.5526 0-1.6332 0.15624-0.46875 0.90878 0.77344 0.49984 2.25 0.90878 3.2812 0.90878 1.5526 0 1.6332-0.15624 0.46875-0.90878zm-199.69-0.9375c0-0.51563-0.42188-0.9375-0.9375-0.9375s-0.9375 0.42187-0.9375 0.9375c0 0.51562 0.42188 0.9375 0.9375 0.9375s0.9375-0.42188 0.9375-0.9375zm210.93-0.83662c2.8134-0.78305 2.1505-1.194-5.1468-3.1911-15.273-4.1798-16.959-4.782-14.352-5.1271 1.3876-0.18372 7.3288 0.95721 13.203 2.5354 7.9661 2.1403 12.685 2.8658 18.571 2.8551 11.897-0.0217 11.983-1.4875 0.12393-2.1132-9.2295-0.4869-18.253-2.6332-16.873-4.0133 0.27016-0.27017 5.141 0.0258 10.824 0.65775 8.7733 0.97554 11.94 0.92593 20.981-0.3287 9.9289-1.3779 23.719-4.6028 24.951-5.8352 0.29727-0.29728-5.3306-0.54279-12.506-0.54558-19.484-7e-3 -49.388-4.8696-53.359-8.6754-1.2305-1.1794 2.7643-0.58701 16.875 2.5022 12.206 2.6722 41.597 4.7539 47.482 3.3631 4.0681-0.96141 3.6132-1.0183-11.388-1.4243-15.703-0.42499-35.412-3.2844-48.75-7.0726-6.6374-1.8851-1.9639-2.1377 7.7419-0.41848 14.538 2.5752 19.55 3.3123 28.821 4.2384 4.8984 0.48934 11.121 1.1582 13.828 1.4865 5.3169 0.64467 6.4958-0.40065 2.3438-2.0782-10.455-4.224-13.091-5.0411-16.264-5.0411-2.6325 0-3.86-0.50085-4.5955-1.875-0.55191-1.0312-1.4694-1.875-2.0388-1.875-1.2299 0-16.214-9.6788-19.409-12.537-1.2259-1.0967-2.7914-3.2596-3.4789-4.8065l-1.25-2.8125-0.0367 3.8005c-0.0299 3.1013 0.52385 4.3267 3.0102 6.661 3.6258 3.404 11.432 8.7573 12.77 8.7573 1.3356 0 2.1952 1.6411 1.1863 2.2646-1.2963 0.80115-9.4194-3.8549-14.939-8.5627-2.7319-2.3302-5.1628-4.0409-5.402-3.8017s1.2935 2.3986 3.4061 4.7986c4.1436 4.7074 3.3697 5.7784-1.4945 2.0683-3.574-2.726-7.0114-9.5614-7.0114-13.942 0-2.4002-0.56014-3.4328-2.3948-4.4147-2.1063-1.1273-2.804-1.0617-5.7923 0.54471-1.8686 1.0045-7.4062 5.7182-12.306 10.475-4.8995 4.7567-11.131 10.241-13.847 12.188-2.7162 1.9464-4.8233 3.9499-4.6826 4.4523 0.14074 0.50237 1.49 1.1725 2.9983 1.4892 5.4057 1.1351 25.711 16.532 25.711 19.496 0 1.3843 7.8642 4.8805 12.873 5.7231 5.5516 0.93387 6.6925 0.94998 9.6173 0.13591zm80.9-0.0238c1.2447-0.47323 4.7122-2.6881 7.7055-4.9219l5.4424-4.0615-6.4726-0.50102c-3.5599-0.27556-6.6872-0.20441-6.9495 0.15811s-1.9173 0.79891-3.6778 0.96977c-3.7413 0.36308-5.179 2.6544-1.6656 2.6544 3.4814 0 8.1641 1.0801 8.1641 1.8832 0 0.3912-4.1133 0.87846-9.1406 1.0828-10.475 0.42577-14.485 1.8529-7.7344 2.7526 6.8238 0.90954 11.908 0.90369 14.329-0.0165zm-267.28-3.0927c-0.67272-0.67271-1.1094-0.72806-1.1094-0.14062 0 1.2514 1.1087 2.36 1.7344 1.7344 0.26641-0.2664-0.01484-0.98359-0.625-1.5938zm133.42 0.54586c2.5781-0.84785 5.3203-1.725 6.0938-1.9493 1.1036-0.32 0.93-0.79622-0.80698-2.2131-2.3035-1.879-6.693-2.4718-6.693-0.90398 0 0.49575-1.7282 1.3667-3.8405 1.9355-3.7229 1.0025-3.7902 1.0897-2.1984 2.8486 1.9858 2.1943 1.6677 2.1822 7.4452 0.28221zm-121.88-8.4216c-2.5145-6.2853-5.0266-10.583-6.2195-10.642-0.47828-0.0233 2.7629 11.257 5.3593 18.653 0.39729 1.1316 0.69774 1.1104 1.945-0.13684 1.3419-1.3419 1.2439-2.0533-1.0848-7.8741zm213.76 7.1414c0.73985-1.1971-2.3664-1.1971-4.2188 0-1.0999 0.71081-0.85667 0.91192 1.1165 0.92315 1.3875 7e-3 2.7835-0.40753 3.1022-0.92315zm-252.66-2.8125c0-1.0312-0.38238-1.875-0.84973-1.875s-0.62909 0.84375-0.35941 1.875c0.26968 1.0312 0.65206 1.875 0.84973 1.875s0.35941-0.84375 0.35941-1.875zm23.066-0.6836c-0.95298-0.95298-1.7393 0.48178-0.95739 1.7469 0.59066 0.95571 0.81148 0.95645 1.129 4e-3 0.21712-0.65136 0.13988-1.4392-0.17164-1.7507zm242.89 1.14c1.8673-0.78021 3.1959-1.6177 2.9525-1.8612-0.68446-0.68446-11.095 1.6949-11.095 2.5358 0 1.2192 4.5034 0.84607 8.1428-0.67459zm-250.59-1.941c0.35037-0.91304 0.14085-1.3416-0.54423-1.1133-1.4014 0.46714-2.173 2.5979-0.94078 2.5979 0.50343 0 1.1717-0.66806 1.485-1.4846zm138.38 0.0783 3.2812-1.2636-3.439-0.0713c-3.89-0.0807-6.4048 0.66691-6.4048 1.904 0 1.1611 2.6711 0.92953 6.5625-0.56905zm127.03-3.7162c2.8042-1.284 2.8054-1.288 0.41356-1.364-1.3194-0.0419-3.2179 0.54326-4.2188 1.3003-2.3992 1.8146-0.10274 1.8531 3.8052 0.0636zm-287.85-2.6119c-0.2456-0.64453-0.81373-3.7031-1.2625-6.7969l-0.81596-5.625-0.10152 4.6875c-0.11406 5.2664 0.63294 8.9062 1.8278 8.9062 0.4393 0 0.59779-0.52734 0.35219-1.1719zm47.367-3.5503c-1.0237-2.5972-1.8613-5.5503-1.8613-6.5625s-0.42187-1.8403-0.9375-1.8403c-1.3056 0-1.2051 0.71846 1.0236 7.318 1.0786 3.1939 2.3381 5.807 2.7988 5.807 0.46077 0 1.6e-4 -2.125-1.0236-4.7222zm-20.908 1.7339c-0.29927-0.74787-0.52142-0.52573-0.56641 0.56641-0.04071 0.98827 0.18087 1.542 0.49239 1.2305 0.31152-0.31153 0.34483-1.1201 0.07402-1.7969zm274.76 1.4066c-0.89634-0.23464-2.5838-0.24316-3.75-0.0189-1.1662 0.22425-0.43281 0.41624 1.6297 0.42664s3.0166-0.17307 2.1203-0.40772zm12.404-0.4577c3.613-0.034 6.5691-0.4328 6.5691-0.88623 0-0.96455-4.108-1.0467-10.992-0.21974-2.694 0.3236-4.6688 0.95963-4.3884 1.4134 0.28044 0.45375 0.89966 0.58412 1.376 0.2897 0.47637-0.29442 3.8222-0.56312 7.4352-0.59712zm-160.31-0.77316c0-0.51563-0.81885-0.9375-1.8197-0.9375s-2.0804 0.42187-2.3991 0.9375c-0.32861 0.53171 0.45902 0.9375 1.8197 0.9375 1.3195 0 2.3991-0.42188 2.3991-0.9375zm-148.51-2.5781c-1.0543-3.3515-2.4232-11.849-2.4371-15.128-0.0079-1.8632-0.46365-4.0205-1.0128-4.7939-0.73655-1.0374-0.87677-0.0538-0.5346 3.75 0.77161 8.5777 2.636 17.812 3.5962 17.812 0.49744 0 0.6722-0.73828 0.38834-1.6406zm275.5-1.9883c-1.3652-1.2515-6.0469-2.1454-6.0469-1.1545 0 1.1091 1.6952 1.8021 4.6406 1.897 1.3578 0.0438 1.9327-0.25981 1.4062-0.74244zm-230.95-5.79-0.91832-2.2998-0.0594 2.5014c-0.0327 1.3758 0.25317 3.2742 0.63523 4.2188 0.64474 1.5939 0.715 1.5794 0.97775-0.20161 0.1557-1.0554-0.13017-2.9538-0.63524-4.2188zm108.9 3.179c-0.63472-0.2568-1.9004-0.27243-2.8125-0.0348-0.91216 0.2377-0.39285 0.44781 1.154 0.46692 1.5469 0.0191 2.2932-0.17537 1.6585-0.43218zm122.35-0.50837c4.8685 0.19727 6.5788-0.17002 9.9261-2.1317 4.634-2.7157 6.2231-2.9618 6.2231-0.96376 0 1.9487 0.98048 1.7218 3.9844-0.92216 4.1118-3.6191 3.3879-4.5777-2.8125-3.7245-8.3743 1.1523-27.872 1.0555-29.388-0.14591-0.7234-0.57343-2.5507-1.3386-4.0607-1.7005-7.4134-1.7764-25.122-11.033-30.23-15.802-2.5891-2.4172-10.16-6.2448-15.669-7.9214-1.1951-0.36374-0.17913 1.4844 3.1324 5.6983 3.3746 4.2941 5.5395 6.2366 6.9507 6.2366 1.1273 0 2.8817 0.57018 3.8988 1.2671 4.5676 3.1297 21.667 10.02 28.522 11.493 4.1504 0.89186 7.5461 1.9716 7.5461 2.3994s-0.73828 0.77515-1.6406 0.77186c-3.089-0.0112-22.617-5.5213-26.391-7.4462-4.2157-2.1507-4.7813-2.2809-4.7813-1.1008 0 1.0299 6.5296 3.8295 16.875 7.2351 6.7283 2.2149 9.5378 2.6236 18.048 2.6255 10.499 2e-3 12.662 1.4137 3.3351 2.1765-2.7374 0.22386-5.6099 0.63147-6.3833 0.90582-2.367 0.83955 1.9779 2.1796 4.6875 1.4457 1.2891-0.34914 4.9906-0.52754 8.2258-0.39645zm-261.4-0.51732c-0.02567-0.38671-0.82291-5.7656-1.7716-11.953-1.1699-7.63-1.7586-9.8925-1.8295-7.0312-0.14299 5.7701 1.8734 19.688 2.8524 19.688 0.43749 0 0.77443-0.31641 0.74877-0.70313zm9.4997-6.5114c-1.7046-10.165-3.1375-16.223-3.8372-16.223-0.75411 0 0.24221 6.9304 2.4031 16.716 1.8797 8.5122 2.8862 8.1661 1.4341-0.49314zm-6.1731-3.7252c-1.8412-10.821-2.8345-12.74-2.0529-3.9662 0.523 5.8709 2.5569 14.247 3.2832 13.521 0.18586-0.18586-0.36776-4.4854-1.2303-9.5545zm11.157 1.0959c-1.3922-7.5721-3.1016-13.054-3.8403-12.315-0.43257 0.43258 1.0012 9.4966 2.6645 16.844 1.6788 7.416 2.67 3.598 1.1758-4.5289zm-20.183 3.0469c-0.44374-2.1914-1.0801-6.0006-1.4142-8.4649-0.84864-6.2601-2.4361-6.7369-1.7425-0.52338 1.2132 10.868 1.7335 12.973 3.2072 12.973 0.41596 0 0.39323-1.793-0.05051-3.9844zm132.78 3.0469c0.31868-0.51563 0.15753-0.9375-0.3581-0.9375-0.51562 0-1.1982 0.42187-1.5169 0.9375-0.31868 0.51562-0.15753 0.9375 0.3581 0.9375 0.51562 0 1.1982-0.42188 1.5169-0.9375zm17.344 0.0553c0-1.266-1.709-2.1436-2.8278-1.4521-0.52404 0.32387-0.71008 0.98158-0.41342 1.4616 0.70375 1.1387 3.2412 1.1313 3.2412-9e-3zm-7.2478-0.67027c-0.63472-0.2568-1.9004-0.27243-2.8125-0.0348-0.91216 0.23769-0.39285 0.4478 1.154 0.46691 1.5469 0.0191 2.2932-0.17537 1.6585-0.43218zm-117.86-6.4684c-0.35296-1.8814-0.87612-3.1864-1.1626-2.8999-0.28646 0.28645-0.23205 2.0602 0.1209 3.9416 0.35296 1.8814 0.87612 3.1864 1.1626 2.8999 0.28646-0.28645 0.23205-2.0602-0.1209-3.9416zm88.073 3.3334c0.31868-0.51563 0.15753-0.9375-0.3581-0.9375-0.51562 0-1.1982 0.42187-1.5169 0.9375-0.31868 0.51562-0.15753 0.9375 0.3581 0.9375 0.51562 0 1.1982-0.42188 1.5169-0.9375zm9.5898-0.56641c-0.31153-0.31152-1.1201-0.34482-1.7969-0.074-0.74787 0.29927-0.52573 0.52142 0.56641 0.5664 0.98827 0.0407 1.542-0.18087 1.2305-0.49239zm8.2226-0.37109c0.31868-0.51563-0.0534-0.9375-0.82685-0.9375-0.77343 0-1.667 0.42187-1.9856 0.9375-0.31868 0.51562 0.0534 0.9375 0.82685 0.9375 0.77343 0 1.667-0.42188 1.9856-0.9375zm8.9062 0.0294c0-0.49944-0.63281-0.66524-1.4062-0.36845-0.77344 0.2968-1.4062 0.70543-1.4062 0.90808 0 0.20264 0.63281 0.36845 1.4062 0.36845s1.4062-0.40864 1.4062-0.90808zm17.344-0.96694c0.35945-0.5816-1.3781-0.9375-4.5768-0.9375-2.8359 0-5.417 0.42187-5.7356 0.9375-0.35945 0.5816 1.3781 0.9375 4.5768 0.9375 2.8359 0 5.417-0.42188 5.7356-0.9375zm-163.48-5.2491c-0.47194-2.0114-0.89469-2.8134-0.93945-1.7821-0.09676 2.2297 0.91395 6.3228 1.4331 5.8037 0.20044-0.20044-0.0217-2.0101-0.49364-4.0216zm299.35 3.7426c0.81562-0.31298 1.4829-1.117 1.4829-1.7868 0-0.9628-0.48916-0.99087-2.3364-0.13408-3.6105 1.6746-2.8667 3.3484 0.85351 1.9209zm-172.42-1.306c0.31868-0.51563-0.0783-0.9375-0.88217-0.9375s-1.4616 0.42187-1.4616 0.9375c0 0.51562 0.39697 0.9375 0.88217 0.9375 0.48519 0 1.1429-0.42188 1.4616-0.9375zm34.508-0.9247c4.0265-8e-3 7.0927-0.38209 6.8138-0.83345-0.27896-0.45136-3.7843-0.70596-7.7897-0.56578-10.661 0.37313-10.564 0.35932-10.564 1.4958 0 0.62811 0.84375 0.82073 2.1094 0.48156 1.1602-0.31092 5.4038-0.57106 9.4303-0.5781zm98.617-1.441c-5.9897-1.6632-7.1559-1.6571-4.2188 0.0219 1.2891 0.73689 3.8203 1.3263 5.625 1.3098 3.1023-0.0284 3.0256-0.10104-1.4062-1.3316zm38.581-0.60098c2.9869-0.74888 3.9936-1.4994 4.3231-3.2235 0.3248-1.6991 0.0174-2.2474-1.26-2.2474-0.92933 0-1.9278 0.38537-2.219 0.85639-0.70376 1.1387-8.2512 4.7648-9.9555 4.783-1.1148 0.0119-1.1266 0.1525-0.069 0.82259 1.3057 0.82731 2.3978 0.70941 9.1804-0.99107zm-190.24 0.52522c-0.31153-0.31152-1.1201-0.34482-1.7969-0.074-0.74787 0.29927-0.52573 0.52142 0.56641 0.5664 0.98827 0.0407 1.542-0.18087 1.2305-0.49239zm63.535-3.1836c-0.32607-0.5276-4.835-0.9375-10.312-0.9375s-9.9864 0.4099-10.312 0.9375c-0.37358 0.60445 3.29 0.9375 10.312 0.9375s10.686-0.33305 10.312-0.9375zm-56.719-0.9375c0.99817-0.64507-0.15806-0.91296-3.9844-0.92315-2.9783-7e-3 -5.3906 0.40518-5.3906 0.92315 0 1.1999 7.5183 1.1999 9.375 0zm33.75-2.444c0-0.20264-0.63281-0.36845-1.4062-0.36845s-1.4062 0.40864-1.4062 0.90808 0.63281 0.66524 1.4062 0.36845c0.77344-0.29681 1.4062-0.70543 1.4062-0.90808zm28.125 0.56905c0-0.51563-1.5015-0.9375-3.3366-0.9375-1.9856 0-3.102 0.37957-2.7572 0.9375 0.31868 0.51562 1.8201 0.9375 3.3366 0.9375s2.7572-0.42188 2.7572-0.9375zm-53.438-2.7088c0-0.74354-15.002-0.42513-17.344 0.3681-0.51563 0.1747 3.1758 0.35094 8.2031 0.39164 5.0274 0.0407 9.1406-0.30117 9.1406-0.75974zm58.541-2.1873c2.2017-3.1434 1.8505-3.5488-2.9937-3.4568l-4.4531 0.0846 3.2812 1.0644 3.2812 1.0645-4.2188 0.25494c-2.3203 0.14021-6.1172 0.56286-8.4375 0.9392l-4.2188 0.68425 6.5625 0.55874c3.6094 0.3073 7.2769 0.63324 8.15 0.72429 0.8731 0.091 2.2442-0.77207 3.0469-1.918zm-22.681 0.52521c-0.64454-0.26007-1.6992-0.26007-2.3438 0-0.64454 0.26007-0.11719 0.47287 1.1719 0.47287s1.8164-0.2128 1.1719-0.47287zm-34.453-2.1806c5.1182-0.65785 4.7607-0.72275-3.9692-0.72045-5.2768 9.3e-4 -10.972 0.32932-12.656 0.72876-4.1684 0.98862 8.9198 0.98208 16.625-8e-3zm-17.812-3.761c-0.31868-0.51563-1.1873-0.9375-1.9303-0.9375s-1.3509 0.42187-1.3509 0.9375c0 0.51562 0.86865 0.9375 1.9303 0.9375s1.6696-0.42188 1.3509-0.9375zm27.656-2.8125c0-0.51563-0.63281-0.9375-1.4062-0.9375s-1.4062 0.42187-1.4062 0.9375c0 0.51562 0.63281 0.9375 1.4062 0.9375s1.4062-0.42188 1.4062-0.9375zm15.469-2.8125c1.5713-0.6752 1.3814-0.81639-1.1719-0.8716-1.6758-0.0362-3.0469 0.35597-3.0469 0.8716 0 1.113 1.6287 1.113 4.2188 0zm-44.704-16.41c-0.58833-1.2912-1.2506-2.1668-1.4718-1.9456-0.66214 0.66215 0.76486 4.2934 1.6872 4.2934 0.46982 0 0.37286-1.0565-0.21547-2.3477zm-14.394-12.436c-1.4012-3.986-2.9305-7.9856-3.3984-8.888-0.54646-1.0538-0.50363-1.6406 0.11974-1.6406 1.4908 0 1.1606-1.3688-0.90452-3.75-1.0312-1.189-1.875-2.5192-1.875-2.956 0-1.5827 3.0224-0.74413 4.7404 1.3153 2.9271 3.5087 2.0361 0.50335-1.4592-4.9219-3.2522-5.0479-4.2651-8.2187-2.2221-6.9561 0.64268 0.39719 0.88899 0.14247 0.62642-0.6478-0.23799-0.7163-2.9294-2.7358-5.981-4.4878-5.6907-3.2671-13.557-5.1834-20.832-5.0744-5.2058 0.078-15.528 5.2432-18.25 9.1318-2.196 3.1379-7.2961 7.9953-8.42 8.0192-0.38672 8e-3 -0.70312 0.37328-0.70312 0.81122 0 0.43793 4.4297 1.0471 9.8438 1.3537 10.093 0.57158 9.8969 0.51394 26.471 7.7719 6.4326 2.817 10.977 6.3549 13.574 10.569 3.2445 5.263 10.083 10.551 10.898 8.4277 0.17522-0.45649-0.82788-4.0913-2.2291-8.0774zm18.643 4.0371c0.56754-1.479-3.4429-5.1907-5.6085-5.1907-1.4891 0-1.7082 1.4996-0.34232 2.3438 0.51562 0.31867 0.9375 1.3983 0.9375 2.3991 0 2.2069 4.1945 2.5816 5.0133 0.44791zm206.35-4.3482c0.53301-0.50426-1.161-0.83745-4.2188-0.82979-6.1317 0.0154-9.5114 0.8072-8.7441 2.0487 0.66484 1.0758 11.627 0.045 12.963-1.2189zm-165.34-8.1896c-0.55414-1.0354-2.1603-2.7893-3.5692-3.8976-4.0585-3.1924-3.9336-0.21845 0.14789 3.522 3.6774 3.3701 5.1079 3.5272 3.4213 0.37558zm139.31-6.4811c-0.23581-0.90234-0.42875-0.16406-0.42875 1.6406s0.19294 2.543 0.42875 1.6406c0.2358-0.90234 0.2358-2.3789 0-3.2812zm12.479 0.70313c0-0.51563-0.63281-0.9375-1.4062-0.9375s-1.4062 0.42187-1.4062 0.9375c0 0.51562 0.63281 0.9375 1.4062 0.9375s1.4062-0.42188 1.4062-0.9375zm-209.66-7.7562c-1.4785-2.0978-3.3211-4.0085-4.0945-4.2461-0.84221-0.25868-0.44825 0.65162 0.98225 2.2696 1.3137 1.4858 2.988 3.901 3.7208 5.3671 0.73279 1.4661 1.5005 2.1611 1.706 1.5446 0.20551-0.61654-0.83607-2.8374-2.3146-4.9352zm211.53 3.0687c0-0.51563-1.9233-0.9375-4.2741-0.9375-2.6107 0-4.0486 0.36487-3.6947 0.9375 0.31867 0.51562 2.242 0.9375 4.2741 0.9375s3.6947-0.42188 3.6947-0.9375zm1.875-4.6875c0-0.51563-0.63281-0.9375-1.4062-0.9375s-1.4062 0.42187-1.4062 0.9375c0 0.51562 0.63281 0.9375 1.4062 0.9375s1.4062-0.42188 1.4062-0.9375zm19.488 0.16489c3.9077-0.61603 5.7238-2.7456 1.9372-2.2715-1.0418 0.13045-2.585-0.14936-3.4292-0.62182-1.2154-0.68015-0.80867-0.99526 1.9532-1.5134 6.334-1.1883 3.7686-2.4214-3.7774-1.8158-8.0833 0.64875-9.6091 0.97324-9.61 2.0438-3.2e-4 0.4029 2.109 0.58636 4.6875 0.40769 2.6862-0.18614 4.6881 0.0712 4.6881 0.60282 0 1.3616-2.4229 2.0658-7.1079 2.0658-2.2781 0-4.1421 0.42188-4.1421 0.9375 0 1.048 8.5915 1.1437 14.801 0.16489zm-39.061-6.4227c-0.81708-1.4051-1-1.4456-1.0234-0.22657-0.0303 1.5788 0.95549 3.0004 1.6199 2.3359 0.21914-0.21914-0.0493-1.1684-0.59649-2.1094zm16.292 1.5703c0.31867-0.51563-0.28924-0.9375-1.3509-0.9375s-1.9303 0.42187-1.9303 0.9375c0 0.51562 0.60791 0.9375 1.3509 0.9375s1.6117-0.42188 1.9303-0.9375zm5.625 0c-0.31867-0.51563-1.1873-0.9375-1.9303-0.9375s-1.3509 0.42187-1.3509 0.9375c0 0.51562 0.86865 0.9375 1.9303 0.9375s1.6696-0.42188 1.3509-0.9375zm-10.781-0.41342c0-0.98951-1.7992-1.4052-2.3343-0.53937-0.32387 0.52403 0.0688 0.95279 0.87272 0.95279 0.80387 0 1.4616-0.18604 1.4616-0.41342zm12.188-3.3366c0-0.51563-0.86865-0.9375-1.9303-0.9375s-1.6696 0.42187-1.3509 0.9375c0.31867 0.51562 1.1873 0.9375 1.9303 0.9375s1.3509-0.42188 1.3509-0.9375zm14.988 0.16489c3.0898-0.46543 4.2972-1.1058 4.5485-2.4124 0.30605-1.5918-0.0376-1.7038-3.269-1.066-1.986 0.392-5.687 0.98151-8.2243 1.31-5.9861 0.77501-6.9976 2.9686-1.3242 2.8715 2.2344-0.0383 5.9554-0.35463 8.269-0.70312zm-25.554-0.7313c-0.31153-0.31152-1.1201-0.34482-1.7969-0.074-0.74787 0.29927-0.52573 0.52142 0.56641 0.5664 0.98827 0.0407 1.542-0.18087 1.2305-0.49239zm11.035-3.1836c0.31867-0.51563-0.1032-0.9375-0.9375-0.9375s-1.2562 0.42187-0.9375 0.9375c0.31867 0.51562 0.74055 0.9375 0.9375 0.9375s0.61883-0.42188 0.9375-0.9375zm-265.29-1.261c1.0171-0.69357 5.8618-2.3882 10.766-3.766 7.9634-2.2371 9.918-2.4423 18.281-1.9194 7.8729 0.49224 9.1698 0.38278 8.1422-0.68717-0.90976-0.94733-4.3849-1.2692-13.594-1.2592-11.015 0.012-12.834 0.24841-16.59 2.156-5.5613 2.8244-10.328 5.5019-11.012 6.1859-1.103 1.1031 2.2079 0.51609 4.0062-0.71021zm38.88-2.0202c-2.6367-1.5073-5.585-1.9028-4.1719-0.55974 0.83618 0.79473 3.4626 1.6536 5.5781 1.824 0.51562 0.0415-0.11719-0.52739-1.4062-1.2643zm222.87-2.9102c-0.31153-0.31152-1.1201-0.34482-1.7969-0.074-0.74787 0.29927-0.52573 0.52142 0.56641 0.5664 0.98827 0.0407 1.542-0.18087 1.2305-0.49239zm-16.192-7.9359c-0.29665-0.47999-1.6746-0.85777-3.0622-0.8395l-2.5228 0.0332 2.332 1.2908c2.4008 1.3289 4.2074 1.0598 3.253-0.4845zm5.1963-3.5546c0-0.4438-2.0039-1.0658-4.4531-1.3822-2.4492-0.31642-5.4023-0.84627-6.5625-1.1774-3.3332-0.95141-2.4539 1.1098 0.9375 2.1978 3.7953 1.2175 10.078 1.4431 10.078 0.36191zm17.812-2.9609c0-0.56715-1.0476-0.70403-2.5781-0.33687-3.6806 0.88298-3.8043 1.2922-0.39062 1.2922 1.6328 0 2.9688-0.42991 2.9688-0.95536zm-14.766-2.9386c0.90235-0.47276 1.6406-1.7472 1.6406-2.8322 0-1.7994-0.39094-1.9281-4.4531-1.4657-4.555 0.51852-10.418-0.21009-16.065-1.9963-4.5212-1.4302-2.7325-0.0435 2.5142 1.9491 2.5771 0.97876 6.9233 1.6752 10.457 1.6757 4.4922 5.6e-4 5.7747 0.27291 4.9883 1.0593-0.69268 0.69268-3.8429 0.91241-9.1143 0.63574-8.6405-0.45352-9.5455 0.44328-1.9209 1.9035 4.8063 0.92051 9.0527 0.59041 11.953-0.92923zm-0.35156-7.0045c5.3233-1.0647 3.057-1.9469-6.3301-2.4642-6.3801-0.35156-10.608-1.1064-13.594-2.4274-2.3837-1.0544-4.334-1.5942-4.334-1.1994 0 0.97246 8.0279 4.533 12.656 5.6133 4.6966 1.0962 7.858 1.2264 11.602 0.47769zm1.2686-7.3334c1.4784-1.0355 0.4718-1.153-6.4979-0.75887-4.655 0.26327-9.854 0.021-11.936-0.55617-3.1633-0.87691-3.4971-0.83601-2.3438 0.28716 3.3563 3.2683 16.641 3.9255 20.778 1.0279zm-16.62-5.2057c0.31867-0.51563-0.0783-0.9375-0.88217-0.9375s-1.4616 0.42187-1.4616 0.9375c0 0.51562 0.39697 0.9375 0.88217 0.9375 0.48519 0 1.1429-0.42188 1.4616-0.9375zm18.773-0.60745c1.4245-0.54664 2.6251-3.1503 1.8227-3.9527-0.298-0.29798-0.8536-0.0373-1.2347 0.57933-0.38109 0.61661-3.5834 1.5305-7.1163 2.0308-9.3016 1.3173-10.596 3.3078-1.6023 2.4642 3.791-0.3556 7.4498-0.8603 8.1306-1.1216zm-24.398-1.2676c-0.31867-0.51563-1.1873-0.9375-1.9303-0.9375s-1.3509 0.42187-1.3509 0.9375c0 0.51562 0.86865 0.9375 1.9303 0.9375s1.6696-0.42188 1.3509-0.9375zm-8.9334-2.8491c-0.7585-0.47969-2.0119-0.86368-2.7854-0.8533-0.81527 0.011-0.42188 0.56364 0.93608 1.3152 2.5172 1.3931 4.141 0.98749 1.8493-0.46188zm18.074-0.58427c-0.64453-0.26007-1.6992-0.26007-2.3438 0-0.64453 0.26007-0.11718 0.47287 1.1719 0.47287s1.8164-0.2128 1.1719-0.47287zm11.554-0.43192c3.8586-0.97161 5.8305-2.2659 4.888-3.2084-0.52871-0.52871-11.303 2.4823-12.411 3.4682-1.2628 1.1244 2.5484 0.9927 7.5227-0.25984zm-7.1008-4.5722c0-0.51563-0.84375-0.9375-1.875-0.9375s-1.875 0.42187-1.875 0.9375c0 0.51562 0.84375 0.9375 1.875 0.9375s1.875-0.42188 1.875-0.9375zm13.368-3.8802c0.92628-0.49573 1.4616-1.2614 1.1897-1.7014-0.50607-0.81883-8.247 1.7334-9.5931 3.1629-0.93144 0.98916 6.1138-0.23614 8.4034-1.4615zm-8.2717-2.1218c4.8031-2.1724 9.9033-6.0881 9.9033-7.6033 0-0.91888-0.90786-0.99135-3.9255-0.31333-2.159 0.4851-6.0614 0.7903-8.6719 0.67822-4.3958-0.18874-12.715 1.4633-12.715 2.525 0 0.25421 4.5352 0.17019 10.078-0.1867 9.3248-0.60041 9.9819-0.53254 8.7915 0.90791-0.70767 0.85624-1.9472 1.5568-2.7545 1.5568-1.6377 0-7.6612 3.841-7.6712 4.8917-4e-3 0.3701 0.73188 0.34441 1.6342-0.0571 0.90234-0.4015 3.3013-1.4811 5.331-2.3992zm-9.7842 1.3146c0-0.51563-0.65771-0.9375-1.4616-0.9375s-1.2008 0.42187-0.88217 0.9375c0.31867 0.51562 0.97639 0.9375 1.4616 0.9375s0.88217-0.42188 0.88217-0.9375zm-24.844-4.6875c-0.31867-0.51563-0.97639-0.9375-1.4616-0.9375-0.4852 0-0.88217 0.42187-0.88217 0.9375 0 0.51562 0.65771 0.9375 1.4616 0.9375s1.2008-0.42188 0.88217-0.9375zm34.84-5.683c1.4401-0.54753 4.6316-1.0414 7.0923-1.0974 5.4246-0.12356 5.8666-1.2234 0.7666-1.9074-3.5959-0.48231-10.778 1.2935-12.652 3.1285-1.2208 1.1951 1.5099 1.1247 4.7932-0.12364zm-8.5364-1.2716c1.0001-0.73128 1.608-1.5115 1.3511-1.7338-0.80337-0.69501-6.561 1.1942-6.561 2.1528 0 1.3535 3.1302 1.1019 5.21-0.4189zm-7.9847-3.84c3.4165-1.2054 10.66-6.2653 15.9-11.106 0.77344-0.7146 2.4609-1.6067 3.75-1.9825 2.8066-0.81817 8.4221-4.4239 8.4311-5.4138 0.0104-1.1397-2.1355-0.79977-5.1498 0.81583-1.5469 0.82907-3.4453 1.5946-4.2188 1.7012-2.8174 0.38816-4.5574 1.6532-4.0592 2.9512 0.38093 0.9927-0.33121 1.3287-2.8164 1.3287-1.8294 0-3.587 0.42187-3.9056 0.9375-0.31867 0.51562 0.32439 0.9375 1.429 0.9375 2.6033 0 1.9234 2.2427-0.80141 2.6436-1.1209 0.16492-2.4738 1.1141-3.0064 2.1094-0.53264 0.99525-1.4809 1.8313-2.1073 1.8579s-3.6701 1.0516-6.7639 2.2777c-4.2222 1.6734-5.0114 2.2458-3.1648 2.2954 1.3531 0.0364 4.2709-0.57274 6.4838-1.3535zm18.243-1.4551c1.875-0.75646 1.875-0.75646 0-0.83024-2.9819-0.11734 0.34351-1.8881 3.5788-1.9057 2.2122-0.012 2.5446-0.319 2.0462-1.8894-0.38798-1.2224-0.16525-1.8846 0.63995-1.9025 1.5913-0.0354 7.6857-5.5531 6.9481-6.2907-0.85481-0.85481-4.7651 1.5246-8.2285 5.007-1.7103 1.7196-3.5715 3.14-4.1361 3.1564-0.56462 0.0164-1.7558 0.83558-2.6471 1.8204-0.8913 0.98488-2.6442 2.0476-3.8953 2.3616-1.2511 0.31401-2.2748 1.0183-2.2748 1.565 0 1.0086 4.1826 0.43545 7.9688-1.092zm8.9528-0.43063c1.8162-0.9392 2.761-2.1464 2.7516-3.5156-0.01-1.3973-0.2607-1.6973-0.76105-0.90923-0.41068 0.64683-2.1737 2.2289-3.9178 3.5156-3.516 2.594-2.3733 3.1331 1.9272 0.90924zm-23.484-5.332c0-1.2247-7.5629-0.13906-8.9928 1.2909-1.1553 1.1553-0.63932 1.2077 3.8288 0.38922 2.8402-0.52031 5.164-1.2764 5.164-1.6801zm0.54337-5.1943c-0.66215-0.66214-4.2934 0.76486-4.2934 1.6872 0 0.46982 1.0565 0.37286 2.3477-0.21547s2.1668-1.2506 1.9456-1.4718zm9.3883-6.7934c0.78592 0 1.1682-0.42188 0.84955-0.9375-1.1244-1.8193-4.2545-0.96564-5.1562 1.4062-0.4901 1.2891-1.5344 2.3438-2.3206 2.3438-0.78619 0-1.4294 0.67652-1.4294 1.5034 0 1.1143 0.85769 0.7503 3.3139-1.4062 1.8226-1.6003 3.9569-2.9096 4.7428-2.9096zm-21.182 2.7018c0-0.51563-0.42188-0.67678-0.9375-0.3581-0.51563 0.31868-0.9375 1.0013-0.9375 1.5169 0 0.51563 0.42187 0.67678 0.9375 0.3581 0.51562-0.31868 0.9375-1.0013 0.9375-1.5169zm-29.531-5.5144c-0.31867-0.51563-1.0013-0.9375-1.5169-0.9375-0.51563 0-0.67677 0.42187-0.3581 0.9375 0.31867 0.51562 1.0013 0.9375 1.5169 0.9375 0.51563 0 0.67677-0.42188 0.3581-0.9375zm71.719-1.875c2.111-1.972 2.5582-2.8125 1.4962-2.8125-0.83301 0-2.237 0.84375-3.12 1.875-0.88298 1.0312-2.6718 1.8815-3.9752 1.8894-1.8742 0.0113-2.0757 0.2044-0.96353 0.92315 2.2333 1.4432 3.3527 1.1234 6.5625-1.875zm-17.105 0.23437c0.55549-1.6867-2.1268-1.4447-3.595 0.32442-1.0842 1.3064-0.95934 1.4551 0.98365 1.1719 1.224-0.17842 2.3991-0.85175 2.6114-1.4963zm-16.645-2.0638c0-0.38026 1.0535-1.9172 2.3411-3.4153 1.516-1.7639 1.9455-2.8561 1.2188-3.0989-0.61728-0.20625-1.2892 0.12575-1.4932 0.73777-0.20401 0.61201-1.3853 2.3182-2.625 3.7916-2.5999 3.0898-2.8341 3.9781-0.84783 3.2159 0.77344-0.29681 1.4062-0.85076 1.4062-1.231zm11.459-0.45333c2.7211-1.2556 7.4475-3.2595 10.503-4.4531 3.0555-1.1937 5.7139-2.6574 5.9077-3.2527 0.41869-1.2866-8.1376 2.0484-16.151 6.295-8.4418 4.4738-8.5852 5.2521-0.26001 1.4108zm14.929-1.5928c3.0366-1.1072 5.4869-2.5725 5.4869-3.2812 0-1.6585 7.3e-4 -1.6586-5.3136 0.90306-2.4916 1.201-5.5848 2.649-6.8739 3.2178-4.4248 1.9523 0.8595 1.2902 6.7006-0.83961zm11.291-5.0306c1.2785-4.5932 0.23494-7.0312-3.0096-7.0312-1.537 0-2.7946 0.42187-2.7946 0.9375 0 0.51562 0.58768 0.9375 1.306 0.9375 1.873 0 2.4744 2.2502 1.5049 5.6307-0.70595 2.4615-0.59715 2.879 0.68573 2.6318 0.83864-0.16158 1.8771-1.5594 2.3077-3.1063zm6.3832-0.99283c0-2.0189-0.73077-3.9567-1.9531-5.179-2.6129-2.6129-3.0589-1.865-1.3404 2.2478 0.78021 1.8673 1.4186 4.2773 1.4186 5.3555s0.42187 1.6997 0.9375 1.381c0.51562-0.31868 0.9375-2.0311 0.9375-3.8053zm-29.594-5.3353c5.2362-11.273 12.333-35.484 9.9738-34.026-0.46299 0.28614-1.1364 2.311-1.4965 4.4997-1.395 8.479-9.6154 29.831-13.686 35.547-1.6455 2.3108-1.6909 2.6514-0.3539 2.6514 1.0196 0 2.8851-2.9085 5.5622-8.6719zm-22.044-2.1094c8e-3 -1.6534-0.14927-1.598-1.3307 0.46875-0.73689 1.2891-1.3205 3.3984-1.2969 4.6875 0.0418 2.2853 0.0751 2.2736 1.3307-0.46875 0.70831-1.5469 1.2919-3.6562 1.2969-4.6875zm26.353 5.1043c0.5672-1.0598 0.86099-2.4309 0.65285-3.0469-0.20813-0.61595-1.0901 0.25119-1.9599 1.927-0.8698 1.6758-1.1636 3.0469-0.65286 3.0469s1.3927-0.86714 1.9599-1.927zm-33.137-5.7488c-0.29927-0.74787-0.52142-0.52573-0.5664 0.56641-0.0407 0.98827 0.18087 1.542 0.49239 1.2305 0.31152-0.31153 0.34482-1.1201 0.074-1.7969zm16.617-14.66c2.9433-6.8708 5.163-12.988 4.9327-13.594-0.23029-0.60575-1.1406 0.58613-2.023 2.6486-0.88234 2.0625-2.1534 4.3828-2.8245 5.1562-1.6097 1.8551-7.0207 15.898-7.0263 18.234-7e-3 3.052 1.3268 0.66003 6.941-12.446zm22.117 8.9348c0-1.0234 0.73828-2.4212 1.6406-3.1061 1.5625-1.1861 1.5625-1.2468 0-1.2752-2.0856-0.0379-2.062-1.2473 0.1421-7.2773 0.9805-2.6825 2.0272-7.1062 2.3259-9.8305l0.54323-4.9532-1.375 5.4272c-0.75625 2.9849-1.7876 6.1981-2.2919 7.1404-0.5043 0.94229-1.5866 4.9553-2.405 8.9178-0.81847 3.9624-1.7491 7.9212-2.068 8.7971-0.50223 1.3794-0.30754 1.3535 1.4541-0.19332 1.1187-0.98225 2.034-2.6232 2.034-3.6466zm4.6588-0.19243c0-0.51563-0.40894-0.30469-0.90878 0.46875s-0.90878 1.8281-0.90878 2.3438 0.40894 0.30469 0.90878-0.46875 0.90878-1.8281 0.90878-2.3438zm-42.773-4.4531c-0.60449-6.0484-0.88685-7.0144-1.7871-6.1142-0.80662 0.80661 0.65824 11.974 1.5707 11.974 0.44112 0 0.53851-2.6367 0.21645-5.8594zm47.192 3.8086c-0.29927-0.74787-0.52142-0.52573-0.5664 0.56641-0.0407 0.98827 0.18087 1.542 0.49239 1.2305 0.31152-0.31153 0.34482-1.1201 0.074-1.7969zm2.8448-15.514c-0.21548-1.4251-0.39756-0.48164-0.4046 2.0965-7e-3 2.5781 0.16928 3.7441 0.3918 2.591 0.22253-1.1531 0.22829-3.2624 0.0128-4.6875zm-2.6299-11.676c0.0452-3.9657-0.23428-7.4008-0.621-7.6337-0.38671-0.23287-0.73384 5.1211-0.77139 11.898-0.0479 8.6501 0.13709 10.925 0.62099 7.6337 0.3791-2.5781 0.72623-7.9321 0.7714-11.898zm-23.436-3.1022c-0.0516-1.875-0.0516-1.875-0.85725 0-0.44315 1.0312-0.82891 2.5078-0.85725 3.2812-0.0458 1.25 0.0494 1.25 0.85725 0 0.49984-0.77344 0.8856-2.25 0.85725-3.2812zm16.679-24.851c-0.47827-11.12-1.5992-11.991-1.5992-1.243 0 7.4765 0.36658 9.6875 1.6062 9.6875 0.1959 0 0.19274-3.8-7e-3 -8.4445zm-1.2756-11.752c-0.30533-0.79568-0.75621-1.2456-1.002-0.99987-0.24575 0.24574-0.16873 0.89675 0.17114 1.4467 0.92442 1.4957 1.4647 1.2052 0.83081-0.44681zm-107.67-46.366c0.32309-0.52277-0.3782-0.93115-1.5853-0.92314-1.7415 0.011549-1.8898 0.19201-0.75846 0.92314 1.7444 1.1273 1.647 1.1273 2.3438 0zm5.1562-0.9375c0-0.51562-0.39698-0.9375-0.88217-0.9375s-1.1429 0.42188-1.4616 0.9375 0.0783 0.9375 0.88217 0.9375 1.4616-0.42188 1.4616-0.9375zm46.406 383.44c-0.75061-1.2145 5.1519-1.2145 7.0312 0 1.0316 0.66665 0.35938 0.91261-2.5228 0.92315-2.161 8e-3 -4.1898-0.40753-4.5085-0.92315zm18.281-2.0742c-7.1519-1.2677-8.6076-3.0328-1.875-2.2736 2.8359 0.31979 6.0248 0.58511 7.0864 0.58959 1.0616 5e-3 2.7491 0.62755 3.75 1.3846 1.7275 1.3066 1.6772 1.3723-0.99269 1.2949-1.5469-0.0448-5.1328-0.49283-7.9688-0.9955zm40.58-8.7726c-2.0247-0.88612-6.9061-1.3472-14.878-1.4053-9.0566-0.066-11.604-0.34596-10.766-1.1828 1.5099-1.5068 20-1.3263 25.631 0.25022 4.7217 1.322 7.9888 3.873 4.7812 3.7332-0.96547-0.0421-3.1115-0.66995-4.7688-1.3953zm-344.24-0.98323c1.63-1.964 6.4702-4.3698 6.4702-3.216 0 0.51684-1.7207 1.771-3.8238 2.7871-2.8366 1.3705-3.5198 1.4812-2.6464 0.42883zm366-3.17c-0.31867-0.51563 0.0783-0.9375 0.88217-0.9375s1.4616 0.42187 1.4616 0.9375c0 0.51562-0.39698 0.9375-0.88217 0.9375s-1.1429-0.42188-1.4616-0.9375zm-364.2-7.9914c0.65224-0.7859 1.379-1.2358 1.6149-0.99987 0.65016 0.65015-0.67082 2.4288-1.8038 2.4288-0.62165 0-0.55053-0.53792 0.18892-1.4289zm366.54-22.009c0-0.51563 1.2656-0.9375 2.8125-0.9375s2.8125 0.42187 2.8125 0.9375c0 0.51562-1.2656 0.9375-2.8125 0.9375s-2.8125-0.42188-2.8125-0.9375zm8.4386-7.2633c-7.6458-0.357-11.344-2.0016-5.1105-2.2729 5.7108-0.24855 16.726 0.30909 17.703 0.89623 1.0292 0.61838-2.1168 1.9999-4.1565 1.8253-0.77344-0.0662-4.5698-0.2681-8.4364-0.44864zm9.8426-11.514c-3.2632-0.29978-5.0346-0.79718-4.2188-1.1847 0.77344-0.36735 3.9375-0.34011 7.0312 0.0606 7.0533 0.91342 4.7809 1.8217-2.8125 1.1241zm2.9264-11.243c0.62594-0.62594 2.2333-0.65855 4.6406-0.0942l3.683 0.86346-4.6406 0.0942c-3.1588 0.0641-4.3348-0.21162-3.683-0.86346zm9.2611-10.334c-4.125-0.38262-9.1875-0.49581-11.25-0.25153-2.8235 0.33441-3.4026 0.19736-2.3438-0.55472 1.491-1.0591 17.762-1.3922 21.328-0.43668 2.1994 0.58941 2.9826 2.327 0.9375 2.0801-0.64453-0.0778-4.5469-0.45454-8.6719-0.83718zm-33.281-4.0683c0-0.79583 4.4643-1.1448 6.1582-0.48144 1.2809 0.50167 0.64498 0.72839-2.1738 0.775-2.1914 0.0363-3.9844-0.0959-3.9844-0.29356zm9.375 0c0-0.19771 1.0547-0.56107 2.3438-0.80749 1.2891-0.24643 2.3438-0.0847 2.3438 0.35945 0 0.44412-1.0547 0.8075-2.3438 0.8075s-2.3438-0.16176-2.3438-0.35946zm20.625-2.453c0-0.51563 1.4517-0.9375 3.2259-0.9375s3.4867 0.42187 3.8053 0.9375c0.34992 0.56618-0.92777 0.9375-3.2259 0.9375-2.0929 0-3.8053-0.42188-3.8053-0.9375zm8.9062 0c0.31867-0.51563 1.3983-0.9375 2.3991-0.9375s1.8197 0.42187 1.8197 0.9375c0 0.51562-1.0796 0.9375-2.3991 0.9375-1.3606 0-2.1483-0.40579-1.8197-0.9375zm-25.781-2.5818c0-0.97537 5.1556-2.078 9.7969-2.0954 4.5791-0.0171 1.4787 1.6446-4.4062 2.3615-3.3565 0.4089-5.3906 0.30847-5.3906-0.26614zm-379.87-7.4963c-5.6785-12.523-6.1918-14.363-8.6996-31.172-1.3462-9.0234-2.8747-17.768-3.3966-19.433-1.7408-5.5511-2.4939-12.705-1.6568-15.737 0.82462-2.9865 9.6554-16.202 14.399-21.549 2.9444-3.3188 10.774-15.542 10.784-16.834 0.0035-0.49321 1.6421-3.2354 3.6414-6.0938 2.2128-3.1635 3.8985-6.8476 4.3083-9.4157 1.2627-7.9135 4.1913-15.157 8.6568-21.41 2.4534-3.4356 5.752-8.1631 7.3302-10.506 3.0226-4.4865 3.3553-4.8995 10.544-13.084 5.0861-5.7909 7.4338-9.2187 9.7023-14.166 2.8044-6.1164 20.46-22.396 24.289-22.396 3.4311 0 2.7709 1.8455-1.4225 3.9767-6.1841 3.1428-18.462 15.686-22.115 22.593-1.6797 3.1759-3.3425 5.9853-3.6951 6.2431s-1.7711 2.1562-3.1522 4.2188c-3.9552 5.9067-7.0819 10.117-9.3982 12.656-4.3938 4.8162-9.9838 13.844-13.352 21.562-2.8368 6.5013-3.6623 9.8391-4.4825 18.125-0.55294 5.5861-1.3218 9.84-1.7085 9.4531s-0.70312-1.8739-0.70312-3.3044-0.44994-2.879-0.99988-3.2189c-1.4234-0.87971-3.1687 1.663-7.7744 11.327-2.2217 4.6617-6.3317 11.201-9.1332 14.531-2.8015 3.3305-6.7739 8.3757-8.8275 11.212-3.3864 4.6765-3.7299 5.6796-3.6923 10.781 0.05732 7.78 4.4649 17.016 9.5208 19.951 7.1152 4.1305 11.532 9.3155 11.532 13.539 0 3.7465-1.3984 3.2041-2.6684-1.0349-1.2376-4.1308-1.8005-4.6914-9.1624-9.1245l-5.3286-3.2087 0.59591 9.6266c0.68661 11.092 4.0556 25.111 7.432 30.927 2.793 4.8106 3.9483 8.2313 2.78 8.2313-0.46906 0-2.3354-3.2695-4.1473-7.2656zm407.06 5.3906c1.8793-1.2145 7.7819-1.2145 7.0312 0-0.31867 0.51562-2.3475 0.93104-4.5085 0.92315-2.8822-0.0105-3.5544-0.2565-2.5228-0.92315zm-14.238-5.3279c0.67675-0.27081 1.4854-0.23751 1.7969 0.074 0.31152 0.31152-0.2422 0.5331-1.2305 0.4924-1.0921-0.045-1.3143-0.26713-0.56641-0.5664zm22.441-0.91797c0.64454-0.26007 1.6992-0.26007 2.3438 0 0.64454 0.26007 0.11719 0.47287-1.1719 0.47287s-1.8164-0.2128-1.1719-0.47287zm-34.922-2.1916c0.31867-0.51563 2.0311-0.9375 3.8053-0.9375s3.2259 0.42187 3.2259 0.9375c0 0.51562-1.7124 0.9375-3.8053 0.9375-2.2982 0-3.5758-0.37132-3.2259-0.9375zm-22.031-3.8477c0-1.0621-0.26577-1.0299 10.312-1.2479 4.8984-0.10093 10.172 0.11737 11.719 0.4851l2.8125 0.66862-3.2812 0.17849c-12.268 0.66733-21.562 0.63099-21.562-0.0843zm33.047-0.54851c0.90235-0.2358 2.3789-0.2358 3.2812 0 0.90235 0.23581 0.16407 0.42875-1.6406 0.42875s-2.543-0.19294-1.6406-0.42875zm20.909-0.21077c-0.27925-0.45183 0.0465-1.0342 0.72389-1.2941 1.6093-0.61755 13.758 0.36051 13.758 1.1076-7e-5 0.91657-13.919 1.0958-14.481 0.1865zm-49.63-3.6566c-0.31099-0.50318 0.0995-1.17 0.91211-1.4819 2.4087-0.9243 9.7617-0.6452 9.7617 0.37052 0 0.51562-0.52734 0.95894-1.1719 0.98514-0.64453 0.0263-2.9189 0.27117-5.0542 0.54436-2.1353 0.27321-4.1368 0.085-4.4477-0.41815zm19.111-1.1114c0-0.51563 1.582-0.93104 3.5156-0.92315 2.615 0.0107 3.1554 0.24717 2.1094 0.92315-1.8477 1.1941-5.625 1.1941-5.625 0zm14.315-0.64968c0.91215-0.23769 2.1778-0.22206 2.8125 0.0348 0.63471 0.25681-0.1116 0.45129-1.6585 0.43218-1.5469-0.0191-2.0662-0.22922-1.154-0.46691zm26.935-1.2253c-3.8636-0.60067-3.6466-0.66774 2.5781-0.7967 4.0001-0.0829 6.7969 0.24496 6.7969 0.7967 0 1.0203-2.8126 1.0203-9.375 0zm-52.5-2.8125c-0.9812-0.6341 0.57735-0.90878 5.1562-0.90878s6.1374 0.27468 5.1562 0.90878c-0.77344 0.49984-3.0938 0.90878-5.1562 0.90878s-4.3828-0.40894-5.1562-0.90878zm17.812-0.9375c0-0.51563 1.582-0.90785 3.5156-0.8716 2.8202 0.0529 3.1447 0.22527 1.6406 0.8716-2.6052 1.1195-5.1562 1.1195-5.1562 0zm38.203-1.6745c-1.418-0.17876-2.5781-0.71886-2.5781-1.2002 0-1.1196 6.2808-1.152 6.9705-0.036 0.68519 1.1087-1.1986 1.6388-4.3924 1.2362zm-57.891-1.956c0-1.3172 2.3708-1.7673 12.422-2.3583 10.631-0.6252 10.72 0.83125 0.10038 1.6475-4.4565 0.34255-9.0971 0.87241-10.312 1.1774-1.3084 0.32839-2.2098 0.13805-2.2098-0.46666zm-75.345-9.2601c0.97608-8.7201 1.0473-23.516 0.17487-36.328-0.48283-7.0904-0.39093-8.8039 0.37713-7.0312 1.2051 2.7813 2.1663 38.05 1.2392 45.47-0.35425 2.8352-1.0852 5.155-1.6243 5.155-0.66756 0-0.7208-2.3174-0.16692-7.2656zm-289.66 5.7031c-0.34375-0.34375-0.61158-2.3476-0.59518-4.4531 0.02781-3.5695 0.1228-3.7052 1.4062-2.0083 2.2937 3.0325 1.565 8.8375-0.81106 6.4614zm368.28-3.125c4.2968-1.0933 11.926-1.0933 11.25 0-0.31867 0.51562-3.6131 0.88759-7.321 0.82658-5.0878-0.0837-6.0516-0.28648-3.929-0.82658zm18.281-0.36845c0-0.20265 0.63281-0.61128 1.4062-0.90808 0.77344-0.29679 1.4062-0.13099 1.4062 0.36845s-0.63281 0.90808-1.4062 0.90808-1.4062-0.16581-1.4062-0.36845zm28.125-3.3816c1.8535-1.1978 7.5-1.1978 7.5 0 0 0.51562-2.0039 0.93104-4.4531 0.92315-3.2208-0.0104-4.064-0.26586-3.0469-0.92315zm-47.812-1.112c0-0.41963 3.0586-0.72964 6.7969-0.68893 7.8841 0.0859 7.4676 0.56998-0.9375 1.0896-3.2226 0.19925-5.8594 0.0189-5.8594-0.40068zm51.328-3.2588c0.64454-0.26007 1.6992-0.26007 2.3438 0 0.64454 0.26007 0.11719 0.47287-1.1719 0.47287s-1.8164-0.2128-1.1719-0.47287zm-5.5664-0.95703c0.67675-0.27081 1.4854-0.23751 1.7969 0.074 0.31152 0.31152-0.2422 0.5331-1.2305 0.4924-1.0921-0.045-1.3143-0.26713-0.56641-0.5664zm-393.39-1.2003c-5.5171-1.345-4.4957-2.0058 2.6587-1.72 3.8542 0.15394 6.9983 0.70071 6.9983 1.217 0 1.1938-5.622 1.4867-9.6569 0.503zm350.44-0.03425c0.77344-0.49984 2.6719-0.90878 4.2188-0.90878s3.4453 0.40894 4.2188 0.90878c0.99341 0.64199-0.24511 0.90878-4.2188 0.90878s-5.2122-0.26679-4.2188-0.90878zm17.812 0c0-0.51563 0.42187-0.9375 0.9375-0.9375 0.51562 0 0.9375 0.42187 0.9375 0.9375 0 0.51562-0.42188 0.9375-0.9375 0.9375-0.51563 0-0.9375-0.42188-0.9375-0.9375zm-87.42-2.5781c-0.18849-0.38671-0.058-2.1797 0.29001-3.9844l0.6327-3.2812 0.12342 3.9844c0.11583 3.7395-0.25535 4.9037-1.0461 3.2812zm106.64-0.18644c-3.5577-0.59153-3.4447-0.64481 2.2042-1.0388 6.029-0.42054 9.0929 0.2326 6.2352 1.3292-1.7319 0.66459-2.9474 0.62277-8.4394-0.29036zm-23.666-5.691c4.1938-1.2342 16.169-2.1081 19.341-1.4113 5.9041 1.2968 1.6606 2.2327-9.9866 2.2027-7.6539-0.0197-11.011-0.30375-9.3546-0.79136zm-32.116-2.6488c0-0.99335 1.1764-1.457 6.3281-2.4938 2.755-0.55448 4.2865 0.56682 2.3438 1.716-1.7738 1.0493-8.6719 1.668-8.6719 0.7778zm-51.468-9.2862c0.0445-1.9336-0.59122-6.8906-1.4128-11.016-1.8501-9.2887-1.8623-10.781-0.0879-10.781 1.439 0 1.5699 0.63715 1.8293 8.9062 0.0809 2.5781 0.48208 7.3242 0.89155 10.547 0.51613 4.062 0.43076 5.8594-0.2783 5.8594-0.5713 0-0.98702-1.5519-0.94176-3.5156zm50.53-4.8216c0-1.0652 2.3742-1.986 4.9986-1.9386 1.6026 0.029 1.3653 0.32646-1.1218 1.4062-3.7017 1.6071-3.8767 1.6312-3.8767 0.53236zm-331.28-2.9808c-3.0267-2.3808-3.1862-3.6909-0.3608-2.9629 1.879 0.4842 1.9689 0.37223 0.82271-1.0253-1.8838-2.2969-0.2811-1.9146 3.2435 0.77378 1.6892 1.2884 4.2603 2.8314 5.7135 3.4288 2.1264 0.87417 2.3129 1.1641 0.95547 1.485-0.9277 0.21935-2.708-0.27033-3.9561-1.0882-1.9559-1.2815-2.1947-1.2923-1.7286-0.0776 0.78761 2.0525-1.7722 1.7612-4.6896-0.53368zm342.28-0.04829c0.63594-0.6407 1.3924-0.92875 1.6811-0.6401 0.28864 0.28865-0.23167 0.81286-1.1562 1.1649-1.3361 0.50876-1.4438 0.40108-0.52481-0.52482zm-0.21875-11.134c0.31867-0.51563 0.97639-0.9375 1.4616-0.9375s0.88217 0.42187 0.88217 0.9375c0 0.51562-0.65771 0.9375-1.4616 0.9375s-1.2008-0.42188-0.88217-0.9375zm-261.09-0.98011c0-1.5049 4.4199-5.5824 6.0511-5.5824 2.1059 0 1.8053 0.7898-1.4628 3.8426-3.0257 2.8264-4.5884 3.419-4.5884 1.7398zm273.82-1.5427c-0.0362-1.6454 0.35597-3.2523 0.8716-3.571 1.1244-0.69492 1.1244 2.0709 0 4.6875-0.67917 1.5805-0.81607 1.4052-0.8716-1.1165zm-250.14-2.8263c-1.5388-0.29639-2.1094-1.0619-2.1094-2.8301 0-2.2241 0.13519-2.3069 1.6406-1.0045 2.5112 2.1725 5.4955 2.5757 11.686 1.5788 6.6822-1.0761 7.9829-0.47693 3.2539 1.4989-3.1902 1.333-9.7098 1.674-14.471 0.75694zm243.1-1.6055c1.0001-0.73128 2.0177-1.1302 2.2614-0.88653 0.51596 0.51596-1.9016 2.1807-3.1974 2.2018-0.48527 8e-3 -0.064-0.58397 0.93603-1.3152zm-249.01-10.262c-0.61896-2.7658-0.91216-5.6134-0.65157-6.3281 0.26903-0.73782 0.73294-0.0839 1.0734 1.5131 0.32977 1.5469 0.95598 4.3945 1.3916 6.3281 0.43561 1.9336 0.45901 3.5156 0.052 3.5156-0.40702 0-1.2464-2.2629-1.8654-5.0287zm10.506 3.3083c-0.88585-0.59517 0.0556-1.0491 3.1328-1.5106 4.1221-0.61815 6.1378-0.24195 4.9685 0.92729-0.99749 0.99749-6.8569 1.4194-8.1013 0.58327zm-23.577-9.3208c0-0.4008 1.1602-1.7854 2.5781-3.0769 1.418-1.2915 3.5039-3.6003 4.6354-5.1306 1.5774-2.1334 2.0694-2.3949 2.1094-1.1209 0.0287 0.91386-1.6891 3.5506-3.8173 5.8594-3.6477 3.9573-5.5056 5.128-5.5056 3.4691zm89.062-8.3855c-3.8671-0.46487-5.6671-1.8187-3.5156-2.6443 1.9947-0.76545 9.2358 0.73542 9.2379 1.9148 2e-3 1.1045-1.2621 1.2657-5.7223 0.72951zm21.784-1.1788c-2.1985-0.99789-5.5735-2.0717-7.5-2.3863-7.5584-1.2343-8.6548-1.5689-8.0973-2.471 1.2868-2.0821 20.846 2.9675 21.727 5.6092 0.52818 1.5845-1.5413 1.3307-6.1294-0.75186zm-94.673-3.3007c0.0104-2.0625 0.2024-2.7959 0.42664-1.6297s0.21572 2.8537-0.0189 3.75c-0.23465 0.89633-0.41813-0.0579-0.40772-2.1203zm-0.12612-11.719c-0.045-1.8047 0.51635-5.1797 1.2475-7.5 1.6964-5.3839 1.7607-2.1872 0.10365 5.1562-1.0586 4.6915-1.2829 5.0804-1.3511 2.3438zm53.496-10.578c-1.6414-1.9777-2.9678-6.1952-2.1144-6.7226 1.1512-0.71147 2.5681 1.3719 3.3179 4.8784 0.69917 3.2698 0.38244 3.7552-1.2035 1.8443zm-48.919-7.2349c0-1.0312 0.38238-1.875 0.84973-1.875s0.62909 0.84375 0.35941 1.875-0.65206 1.875-0.84973 1.875-0.35941-0.84375-0.35941-1.875zm2.3154-8.4448c0.72276-2.3755 4.1238-8.4302 4.7354-8.4302 0.85353 0-2.669 8.4616-3.9731 9.544-1.2928 1.0729-1.3861 0.93657-0.76226-1.1138zm147.93-15.227c0.56785-8.6196 1.238-11.016 3.081-11.016 2.2755 0 2.4565 1.8672 0.48968 5.0496-1.0675 1.7272-1.9004 4.3563-1.8508 5.8423 0.0894 2.6844 0.10007 2.6791 1.6406-0.80899 0.85282-1.931 2.0779-3.513 2.7224-3.5156 1.6248-7e-3 1.3968 1.7661-0.72253 5.6202-0.9924 1.8047-2.076 4.0195-2.4081 4.9219-0.33204 0.90234-1.2468 1.6406-2.0328 1.6406-1.2061 0-1.3496-1.2067-0.91953-7.7344zm-139.93 0.34502c0-0.51562 0.42187-1.1982 0.9375-1.5169 0.51562-0.31868 0.9375-0.15753 0.9375 0.3581 0 0.51562-0.42188 1.1982-0.9375 1.5169-0.51563 0.31868-0.9375 0.15753-0.9375-0.3581zm152.81-3.8708c0-1.3091 2.8914-19.168 3.107-19.191 0.0959-0.0099 1.1235-0.54894 2.2836-1.1978 2.05-1.1466 2.1094-1.0609 2.1094 3.0469 0 3.9995-1.1587 5.6146-2.1916 3.0548-0.26007-0.64454-0.51543 0.72656-0.56746 3.0469-0.052 2.3203-0.90847 6.0117-1.9032 8.2031-1.7448 3.8438-2.8378 5.0134-2.8378 3.0368zm17.812-15.927c0-0.51562 0.44677-0.9375 0.99283-0.9375s0.73209 0.42188 0.41342 0.9375c-0.31867 0.51563-0.76545 0.9375-0.99283 0.9375s-0.41342-0.42187-0.41342-0.9375zm-157.5-1.6987c0-0.41866 1.3711-1.7481 3.0469-2.9544l3.0469-2.1932-2.7535 2.9544c-2.9183 3.1312-3.3402 3.4082-3.3402 2.1932zm142.15-6.9923c-0.30816-1.1496-0.56605-4.1219-0.57309-6.605-8e-3 -2.4831-0.37915-5.2253-0.8269-6.0938-0.44776-0.86845-1.0997-3.161-1.4487-5.0946-0.49713-2.7539-0.3365-3.5156 0.74139-3.5156 0.76376 0 1.8799 1.5643 2.5084 3.5156 0.62281 1.9336 1.5436 4.0342 2.0462 4.6679 0.59565 0.75107 0.57709 2.1183-0.0533 3.9267-0.73377 2.1049-0.66826 3.0225 0.27148 3.8024 0.68127 0.5654 1.3995 2.4056 1.596 4.0893 0.30198 2.5867 0.0428 3.0873-1.6719 3.2293-1.3859 0.1147-2.207-0.49474-2.5896-1.9223zm-136.52-2.9092c0-1.7538 0.52294-2.0566 4.9219-2.8504 3.9264-0.70847 4.9347 0.84114 1.4062 2.1611-5.392 2.0171-6.3281 2.1191-6.3281 0.68924zm2.3221-5.2508c0.92136-1.0181 2.4178-2.0867 3.3253-2.3748 0.90757-0.28805 1.8671-1.3535 2.1323-2.3677 0.33616-1.2855 1.2855-1.844 3.1346-1.844 1.4588 0 4.8742-1.1241 7.5897-2.498s5.2528-2.1682 5.6384-1.765c0.38565 0.40315-0.0808 1.2109-1.0366 1.7949-0.95578 0.58406-3.698 2.3069-6.0938 3.8285-4.2529 2.7011-13.825 7.0642-15.517 7.0728-0.46663 0.0023-0.0946-0.82864 0.82677-1.8467zm11.76-10.508c0.0109-0.67928 2.4367-2.41 5.3906-3.8459 4.6051-2.2387 4.9151-2.5385 2.1743-2.1029l-3.1965 0.508 3.6652-2.6647c2.0159-1.4656 4.7199-3.7815 6.009-5.1465s2.6602-2.4892 3.0469-2.4981c1.2347-0.02844 0.75395 2.5245-0.70313 3.7338-0.77344 0.6419-1.4062 2.1047-1.4062 3.2507 0 2.4479-1.8738 4.2687-7.0312 6.8322-5.6715 2.819-7.9721 3.3786-7.9489 1.9333zm-5.6448-46.704c0-0.51562 0.44677-0.9375 0.99283-0.9375s0.7321 0.42188 0.41342 0.9375-0.76545 0.9375-0.99283 0.9375-0.41342-0.42188-0.41342-0.9375zm4.6175-3.6192c1.3675-2.5552 6.4551-6.0627 12.183-8.3993 5.222-2.1302 12.262-3.6574 12.262-2.6601 0 0.61938-8.4901 4.6322-12.188 5.7604-1.2891 0.39333-4.7808 2.1323-7.7595 3.8644-4.0817 2.3735-5.1897 2.7269-4.498 1.4345z"/>
</svg>
